<mxfile host="app.diagrams.net" agent="Mozilla/5.0 (Windows NT 10.0; Win64; x64) AppleWebKit/537.36 (KHTML, like Gecko) Chrome/131.0.0.0 Safari/537.36" version="25.0.3">
  <diagram name="Page-1" id="vkYV8549UYQZ78CjpYFF">
    <mxGraphModel dx="4940" dy="1310" grid="1" gridSize="10" guides="1" tooltips="1" connect="1" arrows="1" fold="1" page="1" pageScale="1" pageWidth="850" pageHeight="1100" math="0" shadow="0">
      <root>
        <mxCell id="0" />
        <mxCell id="1" parent="0" />
        <mxCell id="Dk8m6rx7Y5rghPsr6DhD-1" value="Test" style="whiteSpace=wrap;html=1;aspect=fixed;fillColor=#FFFFFF;verticalAlign=top;" parent="1" vertex="1">
          <mxGeometry x="178" y="282.5" width="495" height="495" as="geometry" />
        </mxCell>
        <mxCell id="Dk8m6rx7Y5rghPsr6DhD-28" style="edgeStyle=orthogonalEdgeStyle;rounded=0;orthogonalLoop=1;jettySize=auto;html=1;exitX=0;exitY=0.5;exitDx=0;exitDy=0;entryX=0;entryY=0.5;entryDx=0;entryDy=0;" parent="1" source="Dk8m6rx7Y5rghPsr6DhD-7" target="Dk8m6rx7Y5rghPsr6DhD-6" edge="1">
          <mxGeometry relative="1" as="geometry">
            <Array as="points">
              <mxPoint x="130" y="420" />
              <mxPoint x="130" y="360" />
            </Array>
          </mxGeometry>
        </mxCell>
        <mxCell id="Dk8m6rx7Y5rghPsr6DhD-29" style="edgeStyle=orthogonalEdgeStyle;rounded=0;orthogonalLoop=1;jettySize=auto;html=1;exitX=1;exitY=0.3333333333333333;exitDx=0;exitDy=0;exitPerimeter=0;entryX=0;entryY=0.5;entryDx=0;entryDy=0;" parent="1" source="Dk8m6rx7Y5rghPsr6DhD-2" target="Dk8m6rx7Y5rghPsr6DhD-8" edge="1">
          <mxGeometry relative="1" as="geometry">
            <Array as="points">
              <mxPoint x="130" y="480" />
            </Array>
          </mxGeometry>
        </mxCell>
        <mxCell id="Dk8m6rx7Y5rghPsr6DhD-36" style="edgeStyle=orthogonalEdgeStyle;rounded=0;orthogonalLoop=1;jettySize=auto;html=1;exitX=1;exitY=0.3333333333333333;exitDx=0;exitDy=0;exitPerimeter=0;entryX=0;entryY=0.5;entryDx=0;entryDy=0;" parent="1" source="Dk8m6rx7Y5rghPsr6DhD-2" target="Dk8m6rx7Y5rghPsr6DhD-9" edge="1">
          <mxGeometry relative="1" as="geometry">
            <Array as="points">
              <mxPoint x="130" y="420" />
              <mxPoint x="130" y="540" />
            </Array>
          </mxGeometry>
        </mxCell>
        <mxCell id="Dk8m6rx7Y5rghPsr6DhD-2" value="Player" style="shape=umlActor;verticalLabelPosition=bottom;verticalAlign=top;html=1;outlineConnect=0;" parent="1" vertex="1">
          <mxGeometry x="70" y="400" width="30" height="60" as="geometry" />
        </mxCell>
        <mxCell id="Dk8m6rx7Y5rghPsr6DhD-32" style="edgeStyle=orthogonalEdgeStyle;rounded=0;orthogonalLoop=1;jettySize=auto;html=1;exitX=1;exitY=0.3333333333333333;exitDx=0;exitDy=0;exitPerimeter=0;entryX=0;entryY=0.5;entryDx=0;entryDy=0;" parent="1" source="Dk8m6rx7Y5rghPsr6DhD-3" target="Dk8m6rx7Y5rghPsr6DhD-10" edge="1">
          <mxGeometry relative="1" as="geometry" />
        </mxCell>
        <mxCell id="Dk8m6rx7Y5rghPsr6DhD-3" value="NPC" style="shape=umlActor;verticalLabelPosition=bottom;verticalAlign=top;html=1;outlineConnect=0;" parent="1" vertex="1">
          <mxGeometry x="70" y="630" width="30" height="60" as="geometry" />
        </mxCell>
        <mxCell id="Dk8m6rx7Y5rghPsr6DhD-39" style="edgeStyle=orthogonalEdgeStyle;rounded=0;orthogonalLoop=1;jettySize=auto;html=1;exitX=0;exitY=0.3333333333333333;exitDx=0;exitDy=0;exitPerimeter=0;entryX=1;entryY=0.5;entryDx=0;entryDy=0;" parent="1" source="Dk8m6rx7Y5rghPsr6DhD-4" target="Dk8m6rx7Y5rghPsr6DhD-12" edge="1">
          <mxGeometry relative="1" as="geometry">
            <Array as="points">
              <mxPoint x="700" y="550" />
              <mxPoint x="700" y="485" />
            </Array>
          </mxGeometry>
        </mxCell>
        <mxCell id="Dk8m6rx7Y5rghPsr6DhD-40" style="edgeStyle=orthogonalEdgeStyle;rounded=0;orthogonalLoop=1;jettySize=auto;html=1;exitX=0;exitY=0.3333333333333333;exitDx=0;exitDy=0;exitPerimeter=0;entryX=1;entryY=0.5;entryDx=0;entryDy=0;" parent="1" source="Dk8m6rx7Y5rghPsr6DhD-4" target="Dk8m6rx7Y5rghPsr6DhD-13" edge="1">
          <mxGeometry relative="1" as="geometry" />
        </mxCell>
        <mxCell id="Dk8m6rx7Y5rghPsr6DhD-41" style="edgeStyle=orthogonalEdgeStyle;rounded=0;orthogonalLoop=1;jettySize=auto;html=1;exitX=0;exitY=0.3333333333333333;exitDx=0;exitDy=0;exitPerimeter=0;entryX=1;entryY=0.5;entryDx=0;entryDy=0;" parent="1" source="Dk8m6rx7Y5rghPsr6DhD-4" target="Dk8m6rx7Y5rghPsr6DhD-14" edge="1">
          <mxGeometry relative="1" as="geometry">
            <Array as="points">
              <mxPoint x="700" y="550" />
              <mxPoint x="700" y="625" />
            </Array>
          </mxGeometry>
        </mxCell>
        <mxCell id="Dk8m6rx7Y5rghPsr6DhD-4" value="Boss" style="shape=umlActor;verticalLabelPosition=bottom;verticalAlign=top;html=1;outlineConnect=0;" parent="1" vertex="1">
          <mxGeometry x="730" y="530" width="30" height="60" as="geometry" />
        </mxCell>
        <mxCell id="Dk8m6rx7Y5rghPsr6DhD-6" value="Attack" style="ellipse;whiteSpace=wrap;html=1;" parent="1" vertex="1">
          <mxGeometry x="220" y="340" width="80" height="40" as="geometry" />
        </mxCell>
        <mxCell id="Dk8m6rx7Y5rghPsr6DhD-7" value="Dodge" style="ellipse;whiteSpace=wrap;html=1;" parent="1" vertex="1">
          <mxGeometry x="230" y="400" width="80" height="40" as="geometry" />
        </mxCell>
        <mxCell id="Dk8m6rx7Y5rghPsr6DhD-8" value="Sprint" style="ellipse;whiteSpace=wrap;html=1;" parent="1" vertex="1">
          <mxGeometry x="220" y="460" width="80" height="40" as="geometry" />
        </mxCell>
        <mxCell id="Dk8m6rx7Y5rghPsr6DhD-9" value="Interact" style="ellipse;whiteSpace=wrap;html=1;" parent="1" vertex="1">
          <mxGeometry x="230" y="520" width="80" height="40" as="geometry" />
        </mxCell>
        <mxCell id="Dk8m6rx7Y5rghPsr6DhD-10" value="Dialog Box" style="ellipse;whiteSpace=wrap;html=1;" parent="1" vertex="1">
          <mxGeometry x="220" y="630" width="80" height="40" as="geometry" />
        </mxCell>
        <mxCell id="Dk8m6rx7Y5rghPsr6DhD-12" value="Chase Target" style="ellipse;whiteSpace=wrap;html=1;" parent="1" vertex="1">
          <mxGeometry x="525" y="460" width="100" height="50" as="geometry" />
        </mxCell>
        <mxCell id="Dk8m6rx7Y5rghPsr6DhD-33" style="edgeStyle=orthogonalEdgeStyle;rounded=0;orthogonalLoop=1;jettySize=auto;html=1;exitX=0;exitY=0.5;exitDx=0;exitDy=0;entryX=1;entryY=0.5;entryDx=0;entryDy=0;dashed=1;dashPattern=12 12;" parent="1" source="Dk8m6rx7Y5rghPsr6DhD-13" target="Dk8m6rx7Y5rghPsr6DhD-6" edge="1">
          <mxGeometry relative="1" as="geometry" />
        </mxCell>
        <mxCell id="Dk8m6rx7Y5rghPsr6DhD-35" value="&amp;lt;&amp;lt;extend&amp;gt;&amp;gt;" style="edgeLabel;html=1;align=center;verticalAlign=middle;resizable=0;points=[];" parent="Dk8m6rx7Y5rghPsr6DhD-33" vertex="1" connectable="0">
          <mxGeometry x="0.2776" y="2" relative="1" as="geometry">
            <mxPoint y="53" as="offset" />
          </mxGeometry>
        </mxCell>
        <mxCell id="Dk8m6rx7Y5rghPsr6DhD-13" value="Combo Attack" style="ellipse;whiteSpace=wrap;html=1;" parent="1" vertex="1">
          <mxGeometry x="527.5" y="525" width="95" height="50" as="geometry" />
        </mxCell>
        <mxCell id="Dk8m6rx7Y5rghPsr6DhD-14" value="Heavy Attack" style="ellipse;whiteSpace=wrap;html=1;" parent="1" vertex="1">
          <mxGeometry x="530" y="600" width="95" height="50" as="geometry" />
        </mxCell>
        <mxCell id="Dk8m6rx7Y5rghPsr6DhD-37" style="edgeStyle=orthogonalEdgeStyle;rounded=0;orthogonalLoop=1;jettySize=auto;html=1;exitX=0.5;exitY=0;exitDx=0;exitDy=0;entryX=0.375;entryY=0.95;entryDx=0;entryDy=0;entryPerimeter=0;dashed=1;dashPattern=12 12;" parent="1" source="Dk8m6rx7Y5rghPsr6DhD-10" target="Dk8m6rx7Y5rghPsr6DhD-9" edge="1">
          <mxGeometry relative="1" as="geometry" />
        </mxCell>
        <mxCell id="Dk8m6rx7Y5rghPsr6DhD-38" value="&amp;lt;&amp;lt;extend&amp;gt;&amp;gt;" style="edgeLabel;html=1;align=center;verticalAlign=middle;resizable=0;points=[];" parent="Dk8m6rx7Y5rghPsr6DhD-37" vertex="1" connectable="0">
          <mxGeometry x="-0.0278" relative="1" as="geometry">
            <mxPoint y="-5" as="offset" />
          </mxGeometry>
        </mxCell>
        <mxCell id="CAmONdcAL_RtEgoEtn1a-14" value="Gangguan Listrik (E)" style="whiteSpace=wrap;strokeWidth=2;" parent="1" vertex="1">
          <mxGeometry x="50" y="1410" width="150" height="49" as="geometry" />
        </mxCell>
        <mxCell id="CAmONdcAL_RtEgoEtn1a-15" value="Koneksi Internet (I)" style="whiteSpace=wrap;strokeWidth=2;" parent="1" vertex="1">
          <mxGeometry x="200" y="1590" width="196" height="49" as="geometry" />
        </mxCell>
        <mxCell id="CAmONdcAL_RtEgoEtn1a-16" value="Cuaca Buruk (W)" style="whiteSpace=wrap;strokeWidth=2;" parent="1" vertex="1">
          <mxGeometry x="330" y="1410" width="170" height="49" as="geometry" />
        </mxCell>
        <mxCell id="CAmONdcAL_RtEgoEtn1a-17" value="Lag (L)" style="whiteSpace=wrap;strokeWidth=2;" parent="1" vertex="1">
          <mxGeometry x="78" y="1710" width="100" height="49" as="geometry" />
        </mxCell>
        <mxCell id="CAmONdcAL_RtEgoEtn1a-18" value="Kekalahan (K)" style="whiteSpace=wrap;strokeWidth=2;" parent="1" vertex="1">
          <mxGeometry x="250" y="1930" width="140" height="49" as="geometry" />
        </mxCell>
        <mxCell id="CAmONdcAL_RtEgoEtn1a-19" value="Kurang Istirahat (R)" style="whiteSpace=wrap;strokeWidth=2;" parent="1" vertex="1">
          <mxGeometry x="240" y="1770" width="160" height="49" as="geometry" />
        </mxCell>
        <mxCell id="CAmONdcAL_RtEgoEtn1a-20" value="Latihan Tidak Cukup (T)" style="whiteSpace=wrap;strokeWidth=2;" parent="1" vertex="1">
          <mxGeometry x="450" y="1770" width="161" height="49" as="geometry" />
        </mxCell>
        <mxCell id="CAmONdcAL_RtEgoEtn1a-21" value="Frustrasi (F)" style="whiteSpace=wrap;strokeWidth=2;" parent="1" vertex="1">
          <mxGeometry x="255.5" y="2140" width="134.5" height="49" as="geometry" />
        </mxCell>
        <mxCell id="CAmONdcAL_RtEgoEtn1a-22" value="" style="curved=1;startArrow=none;endArrow=block;exitX=0.87;exitY=1;entryX=0.25;entryY=0;rounded=0;entryDx=0;entryDy=0;" parent="1" source="CAmONdcAL_RtEgoEtn1a-14" target="CAmONdcAL_RtEgoEtn1a-15" edge="1">
          <mxGeometry relative="1" as="geometry">
            <Array as="points">
              <mxPoint x="200" y="1560" />
            </Array>
          </mxGeometry>
        </mxCell>
        <mxCell id="CAmONdcAL_RtEgoEtn1a-23" value="" style="curved=1;startArrow=none;endArrow=block;exitX=0.5;exitY=1;entryX=0.852;entryY=0.02;rounded=0;entryDx=0;entryDy=0;entryPerimeter=0;" parent="1" source="CAmONdcAL_RtEgoEtn1a-16" target="CAmONdcAL_RtEgoEtn1a-15" edge="1">
          <mxGeometry relative="1" as="geometry">
            <Array as="points">
              <mxPoint x="410" y="1570" />
            </Array>
          </mxGeometry>
        </mxCell>
        <mxCell id="CAmONdcAL_RtEgoEtn1a-24" value="" style="curved=1;startArrow=none;endArrow=block;exitX=0.43;exitY=1;entryX=0.25;entryY=0;rounded=0;entryDx=0;entryDy=0;" parent="1" source="CAmONdcAL_RtEgoEtn1a-14" target="CAmONdcAL_RtEgoEtn1a-17" edge="1">
          <mxGeometry relative="1" as="geometry">
            <Array as="points">
              <mxPoint x="80" y="1590" />
            </Array>
          </mxGeometry>
        </mxCell>
        <mxCell id="CAmONdcAL_RtEgoEtn1a-25" value="" style="curved=1;startArrow=none;endArrow=block;exitX=0.51;exitY=1;entryX=0.58;entryY=0;rounded=0;entryDx=0;entryDy=0;entryPerimeter=0;" parent="1" source="CAmONdcAL_RtEgoEtn1a-15" target="CAmONdcAL_RtEgoEtn1a-17" edge="1">
          <mxGeometry relative="1" as="geometry">
            <Array as="points" />
          </mxGeometry>
        </mxCell>
        <mxCell id="CAmONdcAL_RtEgoEtn1a-26" value="" style="curved=1;startArrow=none;endArrow=block;exitX=0.5;exitY=1;entryX=0.129;entryY=0.041;rounded=0;entryDx=0;entryDy=0;entryPerimeter=0;" parent="1" source="CAmONdcAL_RtEgoEtn1a-17" target="CAmONdcAL_RtEgoEtn1a-18" edge="1">
          <mxGeometry relative="1" as="geometry">
            <Array as="points">
              <mxPoint x="166" y="1882" />
            </Array>
          </mxGeometry>
        </mxCell>
        <mxCell id="CAmONdcAL_RtEgoEtn1a-27" value="" style="curved=1;startArrow=none;endArrow=block;exitX=0.5;exitY=1;entryX=0.5;entryY=0;rounded=0;" parent="1" source="CAmONdcAL_RtEgoEtn1a-19" target="CAmONdcAL_RtEgoEtn1a-18" edge="1">
          <mxGeometry relative="1" as="geometry">
            <Array as="points" />
          </mxGeometry>
        </mxCell>
        <mxCell id="CAmONdcAL_RtEgoEtn1a-28" value="" style="curved=1;startArrow=none;endArrow=block;exitX=0.5;exitY=1;entryX=0.836;entryY=-0.02;rounded=0;entryDx=0;entryDy=0;entryPerimeter=0;" parent="1" source="CAmONdcAL_RtEgoEtn1a-20" target="CAmONdcAL_RtEgoEtn1a-18" edge="1">
          <mxGeometry relative="1" as="geometry">
            <Array as="points">
              <mxPoint x="430" y="1890" />
            </Array>
          </mxGeometry>
        </mxCell>
        <mxCell id="CAmONdcAL_RtEgoEtn1a-29" value="" style="curved=1;startArrow=none;endArrow=block;exitX=0.5;exitY=1;entryX=0.49;entryY=0;rounded=0;" parent="1" source="CAmONdcAL_RtEgoEtn1a-18" target="CAmONdcAL_RtEgoEtn1a-21" edge="1">
          <mxGeometry relative="1" as="geometry">
            <Array as="points" />
          </mxGeometry>
        </mxCell>
        <mxCell id="CAmONdcAL_RtEgoEtn1a-52" value="" style="shape=table;startSize=0;container=1;collapsible=0;childLayout=tableLayout;" parent="1" vertex="1">
          <mxGeometry x="40" y="1150" width="165" height="68" as="geometry" />
        </mxCell>
        <mxCell id="CAmONdcAL_RtEgoEtn1a-53" value="" style="shape=tableRow;horizontal=0;startSize=0;swimlaneHead=0;swimlaneBody=0;strokeColor=inherit;top=0;left=0;bottom=0;right=0;collapsible=0;dropTarget=0;fillColor=none;points=[[0,0.5],[1,0.5]];portConstraint=eastwest;" parent="CAmONdcAL_RtEgoEtn1a-52" vertex="1">
          <mxGeometry width="165" height="20" as="geometry" />
        </mxCell>
        <mxCell id="CAmONdcAL_RtEgoEtn1a-54" value="E" style="shape=partialRectangle;html=1;whiteSpace=wrap;connectable=0;strokeColor=inherit;overflow=hidden;fillColor=none;top=0;left=0;bottom=0;right=0;pointerEvents=1;" parent="CAmONdcAL_RtEgoEtn1a-53" vertex="1">
          <mxGeometry width="83" height="20" as="geometry">
            <mxRectangle width="83" height="20" as="alternateBounds" />
          </mxGeometry>
        </mxCell>
        <mxCell id="CAmONdcAL_RtEgoEtn1a-55" value="Probabilitas" style="shape=partialRectangle;html=1;whiteSpace=wrap;connectable=0;strokeColor=inherit;overflow=hidden;fillColor=none;top=0;left=0;bottom=0;right=0;pointerEvents=1;" parent="CAmONdcAL_RtEgoEtn1a-53" vertex="1">
          <mxGeometry x="83" width="82" height="20" as="geometry">
            <mxRectangle width="82" height="20" as="alternateBounds" />
          </mxGeometry>
        </mxCell>
        <mxCell id="CAmONdcAL_RtEgoEtn1a-56" value="" style="shape=tableRow;horizontal=0;startSize=0;swimlaneHead=0;swimlaneBody=0;strokeColor=inherit;top=0;left=0;bottom=0;right=0;collapsible=0;dropTarget=0;fillColor=none;points=[[0,0.5],[1,0.5]];portConstraint=eastwest;" parent="CAmONdcAL_RtEgoEtn1a-52" vertex="1">
          <mxGeometry y="20" width="165" height="25" as="geometry" />
        </mxCell>
        <mxCell id="CAmONdcAL_RtEgoEtn1a-57" value="true" style="shape=partialRectangle;html=1;whiteSpace=wrap;connectable=0;strokeColor=inherit;overflow=hidden;fillColor=none;top=0;left=0;bottom=0;right=0;pointerEvents=1;" parent="CAmONdcAL_RtEgoEtn1a-56" vertex="1">
          <mxGeometry width="83" height="25" as="geometry">
            <mxRectangle width="83" height="25" as="alternateBounds" />
          </mxGeometry>
        </mxCell>
        <mxCell id="CAmONdcAL_RtEgoEtn1a-58" value="0.3" style="shape=partialRectangle;html=1;whiteSpace=wrap;connectable=0;strokeColor=inherit;overflow=hidden;fillColor=none;top=0;left=0;bottom=0;right=0;pointerEvents=1;" parent="CAmONdcAL_RtEgoEtn1a-56" vertex="1">
          <mxGeometry x="83" width="82" height="25" as="geometry">
            <mxRectangle width="82" height="25" as="alternateBounds" />
          </mxGeometry>
        </mxCell>
        <mxCell id="CAmONdcAL_RtEgoEtn1a-59" value="" style="shape=tableRow;horizontal=0;startSize=0;swimlaneHead=0;swimlaneBody=0;strokeColor=inherit;top=0;left=0;bottom=0;right=0;collapsible=0;dropTarget=0;fillColor=none;points=[[0,0.5],[1,0.5]];portConstraint=eastwest;" parent="CAmONdcAL_RtEgoEtn1a-52" vertex="1">
          <mxGeometry y="45" width="165" height="23" as="geometry" />
        </mxCell>
        <mxCell id="CAmONdcAL_RtEgoEtn1a-60" value="false" style="shape=partialRectangle;html=1;whiteSpace=wrap;connectable=0;strokeColor=inherit;overflow=hidden;fillColor=none;top=0;left=0;bottom=0;right=0;pointerEvents=1;" parent="CAmONdcAL_RtEgoEtn1a-59" vertex="1">
          <mxGeometry width="83" height="23" as="geometry">
            <mxRectangle width="83" height="23" as="alternateBounds" />
          </mxGeometry>
        </mxCell>
        <mxCell id="CAmONdcAL_RtEgoEtn1a-61" value="0.7" style="shape=partialRectangle;html=1;whiteSpace=wrap;connectable=0;strokeColor=inherit;overflow=hidden;fillColor=none;top=0;left=0;bottom=0;right=0;pointerEvents=1;" parent="CAmONdcAL_RtEgoEtn1a-59" vertex="1">
          <mxGeometry x="83" width="82" height="23" as="geometry">
            <mxRectangle width="82" height="23" as="alternateBounds" />
          </mxGeometry>
        </mxCell>
        <mxCell id="CAmONdcAL_RtEgoEtn1a-62" value="" style="shape=table;startSize=0;container=1;collapsible=0;childLayout=tableLayout;" parent="1" vertex="1">
          <mxGeometry x="252.75" y="1210" width="165" height="71" as="geometry" />
        </mxCell>
        <mxCell id="CAmONdcAL_RtEgoEtn1a-63" value="" style="shape=tableRow;horizontal=0;startSize=0;swimlaneHead=0;swimlaneBody=0;strokeColor=inherit;top=0;left=0;bottom=0;right=0;collapsible=0;dropTarget=0;fillColor=none;points=[[0,0.5],[1,0.5]];portConstraint=eastwest;" parent="CAmONdcAL_RtEgoEtn1a-62" vertex="1">
          <mxGeometry width="165" height="23" as="geometry" />
        </mxCell>
        <mxCell id="CAmONdcAL_RtEgoEtn1a-64" value="W" style="shape=partialRectangle;html=1;whiteSpace=wrap;connectable=0;strokeColor=inherit;overflow=hidden;fillColor=none;top=0;left=0;bottom=0;right=0;pointerEvents=1;" parent="CAmONdcAL_RtEgoEtn1a-63" vertex="1">
          <mxGeometry width="83" height="23" as="geometry">
            <mxRectangle width="83" height="23" as="alternateBounds" />
          </mxGeometry>
        </mxCell>
        <mxCell id="CAmONdcAL_RtEgoEtn1a-65" value="Probabilitas" style="shape=partialRectangle;html=1;whiteSpace=wrap;connectable=0;strokeColor=inherit;overflow=hidden;fillColor=none;top=0;left=0;bottom=0;right=0;pointerEvents=1;" parent="CAmONdcAL_RtEgoEtn1a-63" vertex="1">
          <mxGeometry x="83" width="82" height="23" as="geometry">
            <mxRectangle width="82" height="23" as="alternateBounds" />
          </mxGeometry>
        </mxCell>
        <mxCell id="CAmONdcAL_RtEgoEtn1a-66" value="" style="shape=tableRow;horizontal=0;startSize=0;swimlaneHead=0;swimlaneBody=0;strokeColor=inherit;top=0;left=0;bottom=0;right=0;collapsible=0;dropTarget=0;fillColor=none;points=[[0,0.5],[1,0.5]];portConstraint=eastwest;" parent="CAmONdcAL_RtEgoEtn1a-62" vertex="1">
          <mxGeometry y="23" width="165" height="25" as="geometry" />
        </mxCell>
        <mxCell id="CAmONdcAL_RtEgoEtn1a-67" value="true" style="shape=partialRectangle;html=1;whiteSpace=wrap;connectable=0;strokeColor=inherit;overflow=hidden;fillColor=none;top=0;left=0;bottom=0;right=0;pointerEvents=1;" parent="CAmONdcAL_RtEgoEtn1a-66" vertex="1">
          <mxGeometry width="83" height="25" as="geometry">
            <mxRectangle width="83" height="25" as="alternateBounds" />
          </mxGeometry>
        </mxCell>
        <mxCell id="CAmONdcAL_RtEgoEtn1a-68" value="0.4" style="shape=partialRectangle;html=1;whiteSpace=wrap;connectable=0;strokeColor=inherit;overflow=hidden;fillColor=none;top=0;left=0;bottom=0;right=0;pointerEvents=1;" parent="CAmONdcAL_RtEgoEtn1a-66" vertex="1">
          <mxGeometry x="83" width="82" height="25" as="geometry">
            <mxRectangle width="82" height="25" as="alternateBounds" />
          </mxGeometry>
        </mxCell>
        <mxCell id="CAmONdcAL_RtEgoEtn1a-69" value="" style="shape=tableRow;horizontal=0;startSize=0;swimlaneHead=0;swimlaneBody=0;strokeColor=inherit;top=0;left=0;bottom=0;right=0;collapsible=0;dropTarget=0;fillColor=none;points=[[0,0.5],[1,0.5]];portConstraint=eastwest;" parent="CAmONdcAL_RtEgoEtn1a-62" vertex="1">
          <mxGeometry y="48" width="165" height="23" as="geometry" />
        </mxCell>
        <mxCell id="CAmONdcAL_RtEgoEtn1a-70" value="false" style="shape=partialRectangle;html=1;whiteSpace=wrap;connectable=0;strokeColor=inherit;overflow=hidden;fillColor=none;top=0;left=0;bottom=0;right=0;pointerEvents=1;" parent="CAmONdcAL_RtEgoEtn1a-69" vertex="1">
          <mxGeometry width="83" height="23" as="geometry">
            <mxRectangle width="83" height="23" as="alternateBounds" />
          </mxGeometry>
        </mxCell>
        <mxCell id="CAmONdcAL_RtEgoEtn1a-71" value="0.6" style="shape=partialRectangle;html=1;whiteSpace=wrap;connectable=0;strokeColor=inherit;overflow=hidden;fillColor=none;top=0;left=0;bottom=0;right=0;pointerEvents=1;" parent="CAmONdcAL_RtEgoEtn1a-69" vertex="1">
          <mxGeometry x="83" width="82" height="23" as="geometry">
            <mxRectangle width="82" height="23" as="alternateBounds" />
          </mxGeometry>
        </mxCell>
        <mxCell id="CAmONdcAL_RtEgoEtn1a-82" value="" style="shape=table;startSize=0;container=1;collapsible=0;childLayout=tableLayout;" parent="1" vertex="1">
          <mxGeometry x="500" y="1080" width="280" height="230" as="geometry" />
        </mxCell>
        <mxCell id="CAmONdcAL_RtEgoEtn1a-83" value="" style="shape=tableRow;horizontal=0;startSize=0;swimlaneHead=0;swimlaneBody=0;strokeColor=inherit;top=0;left=0;bottom=0;right=0;collapsible=0;dropTarget=0;fillColor=none;points=[[0,0.5],[1,0.5]];portConstraint=eastwest;" parent="CAmONdcAL_RtEgoEtn1a-82" vertex="1">
          <mxGeometry width="280" height="26" as="geometry" />
        </mxCell>
        <mxCell id="CAmONdcAL_RtEgoEtn1a-84" value="E" style="shape=partialRectangle;html=1;whiteSpace=wrap;connectable=0;strokeColor=inherit;overflow=hidden;fillColor=none;top=0;left=0;bottom=0;right=0;pointerEvents=1;" parent="CAmONdcAL_RtEgoEtn1a-83" vertex="1">
          <mxGeometry width="60" height="26" as="geometry">
            <mxRectangle width="60" height="26" as="alternateBounds" />
          </mxGeometry>
        </mxCell>
        <mxCell id="CAmONdcAL_RtEgoEtn1a-85" value="W" style="shape=partialRectangle;html=1;whiteSpace=wrap;connectable=0;strokeColor=inherit;overflow=hidden;fillColor=none;top=0;left=0;bottom=0;right=0;pointerEvents=1;" parent="CAmONdcAL_RtEgoEtn1a-83" vertex="1">
          <mxGeometry x="60" width="60" height="26" as="geometry">
            <mxRectangle width="60" height="26" as="alternateBounds" />
          </mxGeometry>
        </mxCell>
        <mxCell id="CAmONdcAL_RtEgoEtn1a-86" value="I" style="shape=partialRectangle;html=1;whiteSpace=wrap;connectable=0;strokeColor=inherit;overflow=hidden;fillColor=none;top=0;left=0;bottom=0;right=0;pointerEvents=1;" parent="CAmONdcAL_RtEgoEtn1a-83" vertex="1">
          <mxGeometry x="120" width="60" height="26" as="geometry">
            <mxRectangle width="60" height="26" as="alternateBounds" />
          </mxGeometry>
        </mxCell>
        <mxCell id="CAmONdcAL_RtEgoEtn1a-87" value="Probabilitas" style="shape=partialRectangle;html=1;whiteSpace=wrap;connectable=0;strokeColor=inherit;overflow=hidden;fillColor=none;top=0;left=0;bottom=0;right=0;pointerEvents=1;" parent="CAmONdcAL_RtEgoEtn1a-83" vertex="1">
          <mxGeometry x="180" width="100" height="26" as="geometry">
            <mxRectangle width="100" height="26" as="alternateBounds" />
          </mxGeometry>
        </mxCell>
        <mxCell id="CAmONdcAL_RtEgoEtn1a-88" value="" style="shape=tableRow;horizontal=0;startSize=0;swimlaneHead=0;swimlaneBody=0;strokeColor=inherit;top=0;left=0;bottom=0;right=0;collapsible=0;dropTarget=0;fillColor=none;points=[[0,0.5],[1,0.5]];portConstraint=eastwest;" parent="CAmONdcAL_RtEgoEtn1a-82" vertex="1">
          <mxGeometry y="26" width="280" height="25" as="geometry" />
        </mxCell>
        <mxCell id="CAmONdcAL_RtEgoEtn1a-89" value="true" style="shape=partialRectangle;html=1;whiteSpace=wrap;connectable=0;strokeColor=inherit;overflow=hidden;fillColor=none;top=0;left=0;bottom=0;right=0;pointerEvents=1;" parent="CAmONdcAL_RtEgoEtn1a-88" vertex="1">
          <mxGeometry width="60" height="25" as="geometry">
            <mxRectangle width="60" height="25" as="alternateBounds" />
          </mxGeometry>
        </mxCell>
        <mxCell id="CAmONdcAL_RtEgoEtn1a-90" value="true" style="shape=partialRectangle;html=1;whiteSpace=wrap;connectable=0;strokeColor=inherit;overflow=hidden;fillColor=none;top=0;left=0;bottom=0;right=0;pointerEvents=1;" parent="CAmONdcAL_RtEgoEtn1a-88" vertex="1">
          <mxGeometry x="60" width="60" height="25" as="geometry">
            <mxRectangle width="60" height="25" as="alternateBounds" />
          </mxGeometry>
        </mxCell>
        <mxCell id="CAmONdcAL_RtEgoEtn1a-91" value="true" style="shape=partialRectangle;html=1;whiteSpace=wrap;connectable=0;strokeColor=inherit;overflow=hidden;fillColor=none;top=0;left=0;bottom=0;right=0;pointerEvents=1;" parent="CAmONdcAL_RtEgoEtn1a-88" vertex="1">
          <mxGeometry x="120" width="60" height="25" as="geometry">
            <mxRectangle width="60" height="25" as="alternateBounds" />
          </mxGeometry>
        </mxCell>
        <mxCell id="CAmONdcAL_RtEgoEtn1a-92" value="0.8" style="shape=partialRectangle;html=1;whiteSpace=wrap;connectable=0;strokeColor=inherit;overflow=hidden;fillColor=none;top=0;left=0;bottom=0;right=0;pointerEvents=1;" parent="CAmONdcAL_RtEgoEtn1a-88" vertex="1">
          <mxGeometry x="180" width="100" height="25" as="geometry">
            <mxRectangle width="100" height="25" as="alternateBounds" />
          </mxGeometry>
        </mxCell>
        <mxCell id="CAmONdcAL_RtEgoEtn1a-93" value="" style="shape=tableRow;horizontal=0;startSize=0;swimlaneHead=0;swimlaneBody=0;strokeColor=inherit;top=0;left=0;bottom=0;right=0;collapsible=0;dropTarget=0;fillColor=none;points=[[0,0.5],[1,0.5]];portConstraint=eastwest;" parent="CAmONdcAL_RtEgoEtn1a-82" vertex="1">
          <mxGeometry y="51" width="280" height="26" as="geometry" />
        </mxCell>
        <mxCell id="CAmONdcAL_RtEgoEtn1a-94" value="true" style="shape=partialRectangle;html=1;whiteSpace=wrap;connectable=0;strokeColor=inherit;overflow=hidden;fillColor=none;top=0;left=0;bottom=0;right=0;pointerEvents=1;" parent="CAmONdcAL_RtEgoEtn1a-93" vertex="1">
          <mxGeometry width="60" height="26" as="geometry">
            <mxRectangle width="60" height="26" as="alternateBounds" />
          </mxGeometry>
        </mxCell>
        <mxCell id="CAmONdcAL_RtEgoEtn1a-95" value="true" style="shape=partialRectangle;html=1;whiteSpace=wrap;connectable=0;strokeColor=inherit;overflow=hidden;fillColor=none;top=0;left=0;bottom=0;right=0;pointerEvents=1;" parent="CAmONdcAL_RtEgoEtn1a-93" vertex="1">
          <mxGeometry x="60" width="60" height="26" as="geometry">
            <mxRectangle width="60" height="26" as="alternateBounds" />
          </mxGeometry>
        </mxCell>
        <mxCell id="CAmONdcAL_RtEgoEtn1a-96" value="false" style="shape=partialRectangle;html=1;whiteSpace=wrap;connectable=0;strokeColor=inherit;overflow=hidden;fillColor=none;top=0;left=0;bottom=0;right=0;pointerEvents=1;" parent="CAmONdcAL_RtEgoEtn1a-93" vertex="1">
          <mxGeometry x="120" width="60" height="26" as="geometry">
            <mxRectangle width="60" height="26" as="alternateBounds" />
          </mxGeometry>
        </mxCell>
        <mxCell id="CAmONdcAL_RtEgoEtn1a-97" value="0.2" style="shape=partialRectangle;html=1;whiteSpace=wrap;connectable=0;strokeColor=inherit;overflow=hidden;fillColor=none;top=0;left=0;bottom=0;right=0;pointerEvents=1;" parent="CAmONdcAL_RtEgoEtn1a-93" vertex="1">
          <mxGeometry x="180" width="100" height="26" as="geometry">
            <mxRectangle width="100" height="26" as="alternateBounds" />
          </mxGeometry>
        </mxCell>
        <mxCell id="CAmONdcAL_RtEgoEtn1a-98" value="" style="shape=tableRow;horizontal=0;startSize=0;swimlaneHead=0;swimlaneBody=0;strokeColor=inherit;top=0;left=0;bottom=0;right=0;collapsible=0;dropTarget=0;fillColor=none;points=[[0,0.5],[1,0.5]];portConstraint=eastwest;" parent="CAmONdcAL_RtEgoEtn1a-82" vertex="1">
          <mxGeometry y="77" width="280" height="25" as="geometry" />
        </mxCell>
        <mxCell id="CAmONdcAL_RtEgoEtn1a-99" value="true" style="shape=partialRectangle;html=1;whiteSpace=wrap;connectable=0;strokeColor=inherit;overflow=hidden;fillColor=none;top=0;left=0;bottom=0;right=0;pointerEvents=1;" parent="CAmONdcAL_RtEgoEtn1a-98" vertex="1">
          <mxGeometry width="60" height="25" as="geometry">
            <mxRectangle width="60" height="25" as="alternateBounds" />
          </mxGeometry>
        </mxCell>
        <mxCell id="CAmONdcAL_RtEgoEtn1a-100" value="false" style="shape=partialRectangle;html=1;whiteSpace=wrap;connectable=0;strokeColor=inherit;overflow=hidden;fillColor=none;top=0;left=0;bottom=0;right=0;pointerEvents=1;" parent="CAmONdcAL_RtEgoEtn1a-98" vertex="1">
          <mxGeometry x="60" width="60" height="25" as="geometry">
            <mxRectangle width="60" height="25" as="alternateBounds" />
          </mxGeometry>
        </mxCell>
        <mxCell id="CAmONdcAL_RtEgoEtn1a-101" value="true" style="shape=partialRectangle;html=1;whiteSpace=wrap;connectable=0;strokeColor=inherit;overflow=hidden;fillColor=none;top=0;left=0;bottom=0;right=0;pointerEvents=1;" parent="CAmONdcAL_RtEgoEtn1a-98" vertex="1">
          <mxGeometry x="120" width="60" height="25" as="geometry">
            <mxRectangle width="60" height="25" as="alternateBounds" />
          </mxGeometry>
        </mxCell>
        <mxCell id="CAmONdcAL_RtEgoEtn1a-102" value="0.7" style="shape=partialRectangle;html=1;whiteSpace=wrap;connectable=0;strokeColor=inherit;overflow=hidden;fillColor=none;top=0;left=0;bottom=0;right=0;pointerEvents=1;" parent="CAmONdcAL_RtEgoEtn1a-98" vertex="1">
          <mxGeometry x="180" width="100" height="25" as="geometry">
            <mxRectangle width="100" height="25" as="alternateBounds" />
          </mxGeometry>
        </mxCell>
        <mxCell id="CAmONdcAL_RtEgoEtn1a-103" value="" style="shape=tableRow;horizontal=0;startSize=0;swimlaneHead=0;swimlaneBody=0;strokeColor=inherit;top=0;left=0;bottom=0;right=0;collapsible=0;dropTarget=0;fillColor=none;points=[[0,0.5],[1,0.5]];portConstraint=eastwest;" parent="CAmONdcAL_RtEgoEtn1a-82" vertex="1">
          <mxGeometry y="102" width="280" height="26" as="geometry" />
        </mxCell>
        <mxCell id="CAmONdcAL_RtEgoEtn1a-104" value="true" style="shape=partialRectangle;html=1;whiteSpace=wrap;connectable=0;strokeColor=inherit;overflow=hidden;fillColor=none;top=0;left=0;bottom=0;right=0;pointerEvents=1;" parent="CAmONdcAL_RtEgoEtn1a-103" vertex="1">
          <mxGeometry width="60" height="26" as="geometry">
            <mxRectangle width="60" height="26" as="alternateBounds" />
          </mxGeometry>
        </mxCell>
        <mxCell id="CAmONdcAL_RtEgoEtn1a-105" value="false" style="shape=partialRectangle;html=1;whiteSpace=wrap;connectable=0;strokeColor=inherit;overflow=hidden;fillColor=none;top=0;left=0;bottom=0;right=0;pointerEvents=1;" parent="CAmONdcAL_RtEgoEtn1a-103" vertex="1">
          <mxGeometry x="60" width="60" height="26" as="geometry">
            <mxRectangle width="60" height="26" as="alternateBounds" />
          </mxGeometry>
        </mxCell>
        <mxCell id="CAmONdcAL_RtEgoEtn1a-106" value="false" style="shape=partialRectangle;html=1;whiteSpace=wrap;connectable=0;strokeColor=inherit;overflow=hidden;fillColor=none;top=0;left=0;bottom=0;right=0;pointerEvents=1;" parent="CAmONdcAL_RtEgoEtn1a-103" vertex="1">
          <mxGeometry x="120" width="60" height="26" as="geometry">
            <mxRectangle width="60" height="26" as="alternateBounds" />
          </mxGeometry>
        </mxCell>
        <mxCell id="CAmONdcAL_RtEgoEtn1a-107" value="0.3" style="shape=partialRectangle;html=1;whiteSpace=wrap;connectable=0;strokeColor=inherit;overflow=hidden;fillColor=none;top=0;left=0;bottom=0;right=0;pointerEvents=1;" parent="CAmONdcAL_RtEgoEtn1a-103" vertex="1">
          <mxGeometry x="180" width="100" height="26" as="geometry">
            <mxRectangle width="100" height="26" as="alternateBounds" />
          </mxGeometry>
        </mxCell>
        <mxCell id="CAmONdcAL_RtEgoEtn1a-108" value="" style="shape=tableRow;horizontal=0;startSize=0;swimlaneHead=0;swimlaneBody=0;strokeColor=inherit;top=0;left=0;bottom=0;right=0;collapsible=0;dropTarget=0;fillColor=none;points=[[0,0.5],[1,0.5]];portConstraint=eastwest;" parent="CAmONdcAL_RtEgoEtn1a-82" vertex="1">
          <mxGeometry y="128" width="280" height="25" as="geometry" />
        </mxCell>
        <mxCell id="CAmONdcAL_RtEgoEtn1a-109" value="false" style="shape=partialRectangle;html=1;whiteSpace=wrap;connectable=0;strokeColor=inherit;overflow=hidden;fillColor=none;top=0;left=0;bottom=0;right=0;pointerEvents=1;" parent="CAmONdcAL_RtEgoEtn1a-108" vertex="1">
          <mxGeometry width="60" height="25" as="geometry">
            <mxRectangle width="60" height="25" as="alternateBounds" />
          </mxGeometry>
        </mxCell>
        <mxCell id="CAmONdcAL_RtEgoEtn1a-110" value="true" style="shape=partialRectangle;html=1;whiteSpace=wrap;connectable=0;strokeColor=inherit;overflow=hidden;fillColor=none;top=0;left=0;bottom=0;right=0;pointerEvents=1;" parent="CAmONdcAL_RtEgoEtn1a-108" vertex="1">
          <mxGeometry x="60" width="60" height="25" as="geometry">
            <mxRectangle width="60" height="25" as="alternateBounds" />
          </mxGeometry>
        </mxCell>
        <mxCell id="CAmONdcAL_RtEgoEtn1a-111" value="true" style="shape=partialRectangle;html=1;whiteSpace=wrap;connectable=0;strokeColor=inherit;overflow=hidden;fillColor=none;top=0;left=0;bottom=0;right=0;pointerEvents=1;" parent="CAmONdcAL_RtEgoEtn1a-108" vertex="1">
          <mxGeometry x="120" width="60" height="25" as="geometry">
            <mxRectangle width="60" height="25" as="alternateBounds" />
          </mxGeometry>
        </mxCell>
        <mxCell id="CAmONdcAL_RtEgoEtn1a-112" value="0.6" style="shape=partialRectangle;html=1;whiteSpace=wrap;connectable=0;strokeColor=inherit;overflow=hidden;fillColor=none;top=0;left=0;bottom=0;right=0;pointerEvents=1;" parent="CAmONdcAL_RtEgoEtn1a-108" vertex="1">
          <mxGeometry x="180" width="100" height="25" as="geometry">
            <mxRectangle width="100" height="25" as="alternateBounds" />
          </mxGeometry>
        </mxCell>
        <mxCell id="CAmONdcAL_RtEgoEtn1a-113" value="" style="shape=tableRow;horizontal=0;startSize=0;swimlaneHead=0;swimlaneBody=0;strokeColor=inherit;top=0;left=0;bottom=0;right=0;collapsible=0;dropTarget=0;fillColor=none;points=[[0,0.5],[1,0.5]];portConstraint=eastwest;" parent="CAmONdcAL_RtEgoEtn1a-82" vertex="1">
          <mxGeometry y="153" width="280" height="26" as="geometry" />
        </mxCell>
        <mxCell id="CAmONdcAL_RtEgoEtn1a-114" value="false" style="shape=partialRectangle;html=1;whiteSpace=wrap;connectable=0;strokeColor=inherit;overflow=hidden;fillColor=none;top=0;left=0;bottom=0;right=0;pointerEvents=1;" parent="CAmONdcAL_RtEgoEtn1a-113" vertex="1">
          <mxGeometry width="60" height="26" as="geometry">
            <mxRectangle width="60" height="26" as="alternateBounds" />
          </mxGeometry>
        </mxCell>
        <mxCell id="CAmONdcAL_RtEgoEtn1a-115" value="true" style="shape=partialRectangle;html=1;whiteSpace=wrap;connectable=0;strokeColor=inherit;overflow=hidden;fillColor=none;top=0;left=0;bottom=0;right=0;pointerEvents=1;" parent="CAmONdcAL_RtEgoEtn1a-113" vertex="1">
          <mxGeometry x="60" width="60" height="26" as="geometry">
            <mxRectangle width="60" height="26" as="alternateBounds" />
          </mxGeometry>
        </mxCell>
        <mxCell id="CAmONdcAL_RtEgoEtn1a-116" value="false" style="shape=partialRectangle;html=1;whiteSpace=wrap;connectable=0;strokeColor=inherit;overflow=hidden;fillColor=none;top=0;left=0;bottom=0;right=0;pointerEvents=1;" parent="CAmONdcAL_RtEgoEtn1a-113" vertex="1">
          <mxGeometry x="120" width="60" height="26" as="geometry">
            <mxRectangle width="60" height="26" as="alternateBounds" />
          </mxGeometry>
        </mxCell>
        <mxCell id="CAmONdcAL_RtEgoEtn1a-117" value="0.3" style="shape=partialRectangle;html=1;whiteSpace=wrap;connectable=0;strokeColor=inherit;overflow=hidden;fillColor=none;top=0;left=0;bottom=0;right=0;pointerEvents=1;" parent="CAmONdcAL_RtEgoEtn1a-113" vertex="1">
          <mxGeometry x="180" width="100" height="26" as="geometry">
            <mxRectangle width="100" height="26" as="alternateBounds" />
          </mxGeometry>
        </mxCell>
        <mxCell id="CAmONdcAL_RtEgoEtn1a-118" value="" style="shape=tableRow;horizontal=0;startSize=0;swimlaneHead=0;swimlaneBody=0;strokeColor=inherit;top=0;left=0;bottom=0;right=0;collapsible=0;dropTarget=0;fillColor=none;points=[[0,0.5],[1,0.5]];portConstraint=eastwest;" parent="CAmONdcAL_RtEgoEtn1a-82" vertex="1">
          <mxGeometry y="179" width="280" height="25" as="geometry" />
        </mxCell>
        <mxCell id="CAmONdcAL_RtEgoEtn1a-119" value="false" style="shape=partialRectangle;html=1;whiteSpace=wrap;connectable=0;strokeColor=inherit;overflow=hidden;fillColor=none;top=0;left=0;bottom=0;right=0;pointerEvents=1;" parent="CAmONdcAL_RtEgoEtn1a-118" vertex="1">
          <mxGeometry width="60" height="25" as="geometry">
            <mxRectangle width="60" height="25" as="alternateBounds" />
          </mxGeometry>
        </mxCell>
        <mxCell id="CAmONdcAL_RtEgoEtn1a-120" value="false" style="shape=partialRectangle;html=1;whiteSpace=wrap;connectable=0;strokeColor=inherit;overflow=hidden;fillColor=none;top=0;left=0;bottom=0;right=0;pointerEvents=1;" parent="CAmONdcAL_RtEgoEtn1a-118" vertex="1">
          <mxGeometry x="60" width="60" height="25" as="geometry">
            <mxRectangle width="60" height="25" as="alternateBounds" />
          </mxGeometry>
        </mxCell>
        <mxCell id="CAmONdcAL_RtEgoEtn1a-121" value="true" style="shape=partialRectangle;html=1;whiteSpace=wrap;connectable=0;strokeColor=inherit;overflow=hidden;fillColor=none;top=0;left=0;bottom=0;right=0;pointerEvents=1;" parent="CAmONdcAL_RtEgoEtn1a-118" vertex="1">
          <mxGeometry x="120" width="60" height="25" as="geometry">
            <mxRectangle width="60" height="25" as="alternateBounds" />
          </mxGeometry>
        </mxCell>
        <mxCell id="CAmONdcAL_RtEgoEtn1a-122" value="" style="shape=partialRectangle;html=1;whiteSpace=wrap;connectable=0;strokeColor=inherit;overflow=hidden;fillColor=none;top=0;left=0;bottom=0;right=0;pointerEvents=1;" parent="CAmONdcAL_RtEgoEtn1a-118" vertex="1">
          <mxGeometry x="180" width="100" height="25" as="geometry">
            <mxRectangle width="100" height="25" as="alternateBounds" />
          </mxGeometry>
        </mxCell>
        <mxCell id="CAmONdcAL_RtEgoEtn1a-123" value="" style="shape=tableRow;horizontal=0;startSize=0;swimlaneHead=0;swimlaneBody=0;strokeColor=inherit;top=0;left=0;bottom=0;right=0;collapsible=0;dropTarget=0;fillColor=none;points=[[0,0.5],[1,0.5]];portConstraint=eastwest;" parent="CAmONdcAL_RtEgoEtn1a-82" vertex="1">
          <mxGeometry y="204" width="280" height="26" as="geometry" />
        </mxCell>
        <mxCell id="CAmONdcAL_RtEgoEtn1a-124" value="false" style="shape=partialRectangle;html=1;whiteSpace=wrap;connectable=0;strokeColor=inherit;overflow=hidden;fillColor=none;top=0;left=0;bottom=0;right=0;pointerEvents=1;" parent="CAmONdcAL_RtEgoEtn1a-123" vertex="1">
          <mxGeometry width="60" height="26" as="geometry">
            <mxRectangle width="60" height="26" as="alternateBounds" />
          </mxGeometry>
        </mxCell>
        <mxCell id="CAmONdcAL_RtEgoEtn1a-125" value="false" style="shape=partialRectangle;html=1;whiteSpace=wrap;connectable=0;strokeColor=inherit;overflow=hidden;fillColor=none;top=0;left=0;bottom=0;right=0;pointerEvents=1;" parent="CAmONdcAL_RtEgoEtn1a-123" vertex="1">
          <mxGeometry x="60" width="60" height="26" as="geometry">
            <mxRectangle width="60" height="26" as="alternateBounds" />
          </mxGeometry>
        </mxCell>
        <mxCell id="CAmONdcAL_RtEgoEtn1a-126" value="false" style="shape=partialRectangle;html=1;whiteSpace=wrap;connectable=0;strokeColor=inherit;overflow=hidden;fillColor=none;top=0;left=0;bottom=0;right=0;pointerEvents=1;" parent="CAmONdcAL_RtEgoEtn1a-123" vertex="1">
          <mxGeometry x="120" width="60" height="26" as="geometry">
            <mxRectangle width="60" height="26" as="alternateBounds" />
          </mxGeometry>
        </mxCell>
        <mxCell id="CAmONdcAL_RtEgoEtn1a-127" value="" style="shape=partialRectangle;html=1;whiteSpace=wrap;connectable=0;strokeColor=inherit;overflow=hidden;fillColor=none;top=0;left=0;bottom=0;right=0;pointerEvents=1;" parent="CAmONdcAL_RtEgoEtn1a-123" vertex="1">
          <mxGeometry x="180" width="100" height="26" as="geometry">
            <mxRectangle width="100" height="26" as="alternateBounds" />
          </mxGeometry>
        </mxCell>
        <mxCell id="B20BPbvxoQNRa6osuwxp-8" value="" style="shape=table;startSize=0;container=1;collapsible=0;childLayout=tableLayout;" vertex="1" parent="1">
          <mxGeometry x="-50" y="1340" width="60" height="70" as="geometry" />
        </mxCell>
        <mxCell id="B20BPbvxoQNRa6osuwxp-9" value="" style="shape=tableRow;horizontal=0;startSize=0;swimlaneHead=0;swimlaneBody=0;strokeColor=inherit;top=0;left=0;bottom=0;right=0;collapsible=0;dropTarget=0;fillColor=none;points=[[0,0.5],[1,0.5]];portConstraint=eastwest;" vertex="1" parent="B20BPbvxoQNRa6osuwxp-8">
          <mxGeometry width="60" height="30" as="geometry" />
        </mxCell>
        <mxCell id="B20BPbvxoQNRa6osuwxp-10" value="P(E)" style="shape=partialRectangle;html=1;whiteSpace=wrap;connectable=0;strokeColor=inherit;overflow=hidden;fillColor=none;top=0;left=0;bottom=0;right=0;pointerEvents=1;" vertex="1" parent="B20BPbvxoQNRa6osuwxp-9">
          <mxGeometry width="60" height="30" as="geometry">
            <mxRectangle width="60" height="30" as="alternateBounds" />
          </mxGeometry>
        </mxCell>
        <mxCell id="B20BPbvxoQNRa6osuwxp-11" value="" style="shape=tableRow;horizontal=0;startSize=0;swimlaneHead=0;swimlaneBody=0;strokeColor=inherit;top=0;left=0;bottom=0;right=0;collapsible=0;dropTarget=0;fillColor=none;points=[[0,0.5],[1,0.5]];portConstraint=eastwest;" vertex="1" parent="B20BPbvxoQNRa6osuwxp-8">
          <mxGeometry y="30" width="60" height="40" as="geometry" />
        </mxCell>
        <mxCell id="B20BPbvxoQNRa6osuwxp-12" value="0.3" style="shape=partialRectangle;html=1;whiteSpace=wrap;connectable=0;strokeColor=inherit;overflow=hidden;fillColor=none;top=0;left=0;bottom=0;right=0;pointerEvents=1;" vertex="1" parent="B20BPbvxoQNRa6osuwxp-11">
          <mxGeometry width="60" height="40" as="geometry">
            <mxRectangle width="60" height="40" as="alternateBounds" />
          </mxGeometry>
        </mxCell>
        <mxCell id="B20BPbvxoQNRa6osuwxp-13" style="edgeStyle=orthogonalEdgeStyle;rounded=0;orthogonalLoop=1;jettySize=auto;html=1;exitX=1;exitY=0.5;exitDx=0;exitDy=0;entryX=0;entryY=0.5;entryDx=0;entryDy=0;dashed=1;curved=1;" edge="1" parent="1" source="B20BPbvxoQNRa6osuwxp-11" target="CAmONdcAL_RtEgoEtn1a-14">
          <mxGeometry relative="1" as="geometry" />
        </mxCell>
        <mxCell id="B20BPbvxoQNRa6osuwxp-18" value="" style="shape=table;startSize=0;container=1;collapsible=0;childLayout=tableLayout;" vertex="1" parent="1">
          <mxGeometry x="540" y="1360" width="60" height="70" as="geometry" />
        </mxCell>
        <mxCell id="B20BPbvxoQNRa6osuwxp-19" value="" style="shape=tableRow;horizontal=0;startSize=0;swimlaneHead=0;swimlaneBody=0;strokeColor=inherit;top=0;left=0;bottom=0;right=0;collapsible=0;dropTarget=0;fillColor=none;points=[[0,0.5],[1,0.5]];portConstraint=eastwest;" vertex="1" parent="B20BPbvxoQNRa6osuwxp-18">
          <mxGeometry width="60" height="30" as="geometry" />
        </mxCell>
        <mxCell id="B20BPbvxoQNRa6osuwxp-20" value="P(W)" style="shape=partialRectangle;html=1;whiteSpace=wrap;connectable=0;strokeColor=inherit;overflow=hidden;fillColor=none;top=0;left=0;bottom=0;right=0;pointerEvents=1;" vertex="1" parent="B20BPbvxoQNRa6osuwxp-19">
          <mxGeometry width="60" height="30" as="geometry">
            <mxRectangle width="60" height="30" as="alternateBounds" />
          </mxGeometry>
        </mxCell>
        <mxCell id="B20BPbvxoQNRa6osuwxp-21" value="" style="shape=tableRow;horizontal=0;startSize=0;swimlaneHead=0;swimlaneBody=0;strokeColor=inherit;top=0;left=0;bottom=0;right=0;collapsible=0;dropTarget=0;fillColor=none;points=[[0,0.5],[1,0.5]];portConstraint=eastwest;" vertex="1" parent="B20BPbvxoQNRa6osuwxp-18">
          <mxGeometry y="30" width="60" height="40" as="geometry" />
        </mxCell>
        <mxCell id="B20BPbvxoQNRa6osuwxp-22" value="0.4" style="shape=partialRectangle;html=1;whiteSpace=wrap;connectable=0;strokeColor=inherit;overflow=hidden;fillColor=none;top=0;left=0;bottom=0;right=0;pointerEvents=1;" vertex="1" parent="B20BPbvxoQNRa6osuwxp-21">
          <mxGeometry width="60" height="40" as="geometry">
            <mxRectangle width="60" height="40" as="alternateBounds" />
          </mxGeometry>
        </mxCell>
        <mxCell id="B20BPbvxoQNRa6osuwxp-23" style="edgeStyle=orthogonalEdgeStyle;rounded=0;orthogonalLoop=1;jettySize=auto;html=1;exitX=0;exitY=0.5;exitDx=0;exitDy=0;entryX=1;entryY=0.5;entryDx=0;entryDy=0;dashed=1;dashPattern=1 4;curved=1;" edge="1" parent="1" source="B20BPbvxoQNRa6osuwxp-21" target="CAmONdcAL_RtEgoEtn1a-16">
          <mxGeometry relative="1" as="geometry" />
        </mxCell>
        <mxCell id="B20BPbvxoQNRa6osuwxp-27" value="" style="shape=table;startSize=0;container=1;collapsible=0;childLayout=tableLayout;" vertex="1" parent="1">
          <mxGeometry x="470" y="1515" width="180" height="124" as="geometry" />
        </mxCell>
        <mxCell id="B20BPbvxoQNRa6osuwxp-28" value="" style="shape=tableRow;horizontal=0;startSize=0;swimlaneHead=0;swimlaneBody=0;strokeColor=inherit;top=0;left=0;bottom=0;right=0;collapsible=0;dropTarget=0;fillColor=none;points=[[0,0.5],[1,0.5]];portConstraint=eastwest;" vertex="1" parent="B20BPbvxoQNRa6osuwxp-27">
          <mxGeometry width="180" height="20" as="geometry" />
        </mxCell>
        <mxCell id="B20BPbvxoQNRa6osuwxp-29" value="E" style="shape=partialRectangle;html=1;whiteSpace=wrap;connectable=0;strokeColor=inherit;overflow=hidden;fillColor=none;top=0;left=0;bottom=0;right=0;pointerEvents=1;" vertex="1" parent="B20BPbvxoQNRa6osuwxp-28">
          <mxGeometry width="60" height="20" as="geometry">
            <mxRectangle width="60" height="20" as="alternateBounds" />
          </mxGeometry>
        </mxCell>
        <mxCell id="B20BPbvxoQNRa6osuwxp-30" value="W" style="shape=partialRectangle;html=1;whiteSpace=wrap;connectable=0;strokeColor=inherit;overflow=hidden;fillColor=none;top=0;left=0;bottom=0;right=0;pointerEvents=1;" vertex="1" parent="B20BPbvxoQNRa6osuwxp-28">
          <mxGeometry x="60" width="60" height="20" as="geometry">
            <mxRectangle width="60" height="20" as="alternateBounds" />
          </mxGeometry>
        </mxCell>
        <mxCell id="B20BPbvxoQNRa6osuwxp-31" value="P(I)" style="shape=partialRectangle;html=1;whiteSpace=wrap;connectable=0;strokeColor=inherit;overflow=hidden;fillColor=none;top=0;left=0;bottom=0;right=0;pointerEvents=1;" vertex="1" parent="B20BPbvxoQNRa6osuwxp-28">
          <mxGeometry x="120" width="60" height="20" as="geometry">
            <mxRectangle width="60" height="20" as="alternateBounds" />
          </mxGeometry>
        </mxCell>
        <mxCell id="B20BPbvxoQNRa6osuwxp-32" value="" style="shape=tableRow;horizontal=0;startSize=0;swimlaneHead=0;swimlaneBody=0;strokeColor=inherit;top=0;left=0;bottom=0;right=0;collapsible=0;dropTarget=0;fillColor=none;points=[[0,0.5],[1,0.5]];portConstraint=eastwest;" vertex="1" parent="B20BPbvxoQNRa6osuwxp-27">
          <mxGeometry y="20" width="180" height="26" as="geometry" />
        </mxCell>
        <mxCell id="B20BPbvxoQNRa6osuwxp-33" value="true" style="shape=partialRectangle;html=1;whiteSpace=wrap;connectable=0;strokeColor=inherit;overflow=hidden;fillColor=none;top=0;left=0;bottom=0;right=0;pointerEvents=1;" vertex="1" parent="B20BPbvxoQNRa6osuwxp-32">
          <mxGeometry width="60" height="26" as="geometry">
            <mxRectangle width="60" height="26" as="alternateBounds" />
          </mxGeometry>
        </mxCell>
        <mxCell id="B20BPbvxoQNRa6osuwxp-34" value="true" style="shape=partialRectangle;html=1;whiteSpace=wrap;connectable=0;strokeColor=inherit;overflow=hidden;fillColor=none;top=0;left=0;bottom=0;right=0;pointerEvents=1;" vertex="1" parent="B20BPbvxoQNRa6osuwxp-32">
          <mxGeometry x="60" width="60" height="26" as="geometry">
            <mxRectangle width="60" height="26" as="alternateBounds" />
          </mxGeometry>
        </mxCell>
        <mxCell id="B20BPbvxoQNRa6osuwxp-35" value="0.8" style="shape=partialRectangle;html=1;whiteSpace=wrap;connectable=0;strokeColor=inherit;overflow=hidden;fillColor=none;top=0;left=0;bottom=0;right=0;pointerEvents=1;" vertex="1" parent="B20BPbvxoQNRa6osuwxp-32">
          <mxGeometry x="120" width="60" height="26" as="geometry">
            <mxRectangle width="60" height="26" as="alternateBounds" />
          </mxGeometry>
        </mxCell>
        <mxCell id="B20BPbvxoQNRa6osuwxp-36" value="" style="shape=tableRow;horizontal=0;startSize=0;swimlaneHead=0;swimlaneBody=0;strokeColor=inherit;top=0;left=0;bottom=0;right=0;collapsible=0;dropTarget=0;fillColor=none;points=[[0,0.5],[1,0.5]];portConstraint=eastwest;" vertex="1" parent="B20BPbvxoQNRa6osuwxp-27">
          <mxGeometry y="46" width="180" height="26" as="geometry" />
        </mxCell>
        <mxCell id="B20BPbvxoQNRa6osuwxp-37" value="true" style="shape=partialRectangle;html=1;whiteSpace=wrap;connectable=0;strokeColor=inherit;overflow=hidden;fillColor=none;top=0;left=0;bottom=0;right=0;pointerEvents=1;" vertex="1" parent="B20BPbvxoQNRa6osuwxp-36">
          <mxGeometry width="60" height="26" as="geometry">
            <mxRectangle width="60" height="26" as="alternateBounds" />
          </mxGeometry>
        </mxCell>
        <mxCell id="B20BPbvxoQNRa6osuwxp-38" value="false" style="shape=partialRectangle;html=1;whiteSpace=wrap;connectable=0;strokeColor=inherit;overflow=hidden;fillColor=none;top=0;left=0;bottom=0;right=0;pointerEvents=1;" vertex="1" parent="B20BPbvxoQNRa6osuwxp-36">
          <mxGeometry x="60" width="60" height="26" as="geometry">
            <mxRectangle width="60" height="26" as="alternateBounds" />
          </mxGeometry>
        </mxCell>
        <mxCell id="B20BPbvxoQNRa6osuwxp-39" value="0.7" style="shape=partialRectangle;html=1;whiteSpace=wrap;connectable=0;strokeColor=inherit;overflow=hidden;fillColor=none;top=0;left=0;bottom=0;right=0;pointerEvents=1;" vertex="1" parent="B20BPbvxoQNRa6osuwxp-36">
          <mxGeometry x="120" width="60" height="26" as="geometry">
            <mxRectangle width="60" height="26" as="alternateBounds" />
          </mxGeometry>
        </mxCell>
        <mxCell id="B20BPbvxoQNRa6osuwxp-40" value="" style="shape=tableRow;horizontal=0;startSize=0;swimlaneHead=0;swimlaneBody=0;strokeColor=inherit;top=0;left=0;bottom=0;right=0;collapsible=0;dropTarget=0;fillColor=none;points=[[0,0.5],[1,0.5]];portConstraint=eastwest;" vertex="1" parent="B20BPbvxoQNRa6osuwxp-27">
          <mxGeometry y="72" width="180" height="26" as="geometry" />
        </mxCell>
        <mxCell id="B20BPbvxoQNRa6osuwxp-41" value="false" style="shape=partialRectangle;html=1;whiteSpace=wrap;connectable=0;strokeColor=inherit;overflow=hidden;fillColor=none;top=0;left=0;bottom=0;right=0;pointerEvents=1;" vertex="1" parent="B20BPbvxoQNRa6osuwxp-40">
          <mxGeometry width="60" height="26" as="geometry">
            <mxRectangle width="60" height="26" as="alternateBounds" />
          </mxGeometry>
        </mxCell>
        <mxCell id="B20BPbvxoQNRa6osuwxp-42" value="true" style="shape=partialRectangle;html=1;whiteSpace=wrap;connectable=0;strokeColor=inherit;overflow=hidden;fillColor=none;top=0;left=0;bottom=0;right=0;pointerEvents=1;" vertex="1" parent="B20BPbvxoQNRa6osuwxp-40">
          <mxGeometry x="60" width="60" height="26" as="geometry">
            <mxRectangle width="60" height="26" as="alternateBounds" />
          </mxGeometry>
        </mxCell>
        <mxCell id="B20BPbvxoQNRa6osuwxp-43" value="0.6" style="shape=partialRectangle;html=1;whiteSpace=wrap;connectable=0;strokeColor=inherit;overflow=hidden;fillColor=none;top=0;left=0;bottom=0;right=0;pointerEvents=1;" vertex="1" parent="B20BPbvxoQNRa6osuwxp-40">
          <mxGeometry x="120" width="60" height="26" as="geometry">
            <mxRectangle width="60" height="26" as="alternateBounds" />
          </mxGeometry>
        </mxCell>
        <mxCell id="B20BPbvxoQNRa6osuwxp-44" value="" style="shape=tableRow;horizontal=0;startSize=0;swimlaneHead=0;swimlaneBody=0;strokeColor=inherit;top=0;left=0;bottom=0;right=0;collapsible=0;dropTarget=0;fillColor=none;points=[[0,0.5],[1,0.5]];portConstraint=eastwest;" vertex="1" parent="B20BPbvxoQNRa6osuwxp-27">
          <mxGeometry y="98" width="180" height="26" as="geometry" />
        </mxCell>
        <mxCell id="B20BPbvxoQNRa6osuwxp-45" value="false" style="shape=partialRectangle;html=1;whiteSpace=wrap;connectable=0;strokeColor=inherit;overflow=hidden;fillColor=none;top=0;left=0;bottom=0;right=0;pointerEvents=1;" vertex="1" parent="B20BPbvxoQNRa6osuwxp-44">
          <mxGeometry width="60" height="26" as="geometry">
            <mxRectangle width="60" height="26" as="alternateBounds" />
          </mxGeometry>
        </mxCell>
        <mxCell id="B20BPbvxoQNRa6osuwxp-46" value="false" style="shape=partialRectangle;html=1;whiteSpace=wrap;connectable=0;strokeColor=inherit;overflow=hidden;fillColor=none;top=0;left=0;bottom=0;right=0;pointerEvents=1;" vertex="1" parent="B20BPbvxoQNRa6osuwxp-44">
          <mxGeometry x="60" width="60" height="26" as="geometry">
            <mxRectangle width="60" height="26" as="alternateBounds" />
          </mxGeometry>
        </mxCell>
        <mxCell id="B20BPbvxoQNRa6osuwxp-47" value="0.2" style="shape=partialRectangle;html=1;whiteSpace=wrap;connectable=0;strokeColor=inherit;overflow=hidden;fillColor=none;top=0;left=0;bottom=0;right=0;pointerEvents=1;" vertex="1" parent="B20BPbvxoQNRa6osuwxp-44">
          <mxGeometry x="120" width="60" height="26" as="geometry">
            <mxRectangle width="60" height="26" as="alternateBounds" />
          </mxGeometry>
        </mxCell>
        <mxCell id="B20BPbvxoQNRa6osuwxp-48" style="edgeStyle=orthogonalEdgeStyle;rounded=0;orthogonalLoop=1;jettySize=auto;html=1;exitX=0;exitY=0.5;exitDx=0;exitDy=0;entryX=1;entryY=0.5;entryDx=0;entryDy=0;dashed=1;curved=1;" edge="1" parent="1" source="B20BPbvxoQNRa6osuwxp-36" target="CAmONdcAL_RtEgoEtn1a-15">
          <mxGeometry relative="1" as="geometry" />
        </mxCell>
        <mxCell id="B20BPbvxoQNRa6osuwxp-50" value="" style="shape=table;startSize=0;container=1;collapsible=0;childLayout=tableLayout;" vertex="1" parent="1">
          <mxGeometry x="-170" y="1690" width="180" height="124" as="geometry" />
        </mxCell>
        <mxCell id="B20BPbvxoQNRa6osuwxp-51" value="" style="shape=tableRow;horizontal=0;startSize=0;swimlaneHead=0;swimlaneBody=0;strokeColor=inherit;top=0;left=0;bottom=0;right=0;collapsible=0;dropTarget=0;fillColor=none;points=[[0,0.5],[1,0.5]];portConstraint=eastwest;" vertex="1" parent="B20BPbvxoQNRa6osuwxp-50">
          <mxGeometry width="180" height="20" as="geometry" />
        </mxCell>
        <mxCell id="B20BPbvxoQNRa6osuwxp-52" value="E" style="shape=partialRectangle;html=1;whiteSpace=wrap;connectable=0;strokeColor=inherit;overflow=hidden;fillColor=none;top=0;left=0;bottom=0;right=0;pointerEvents=1;" vertex="1" parent="B20BPbvxoQNRa6osuwxp-51">
          <mxGeometry width="60" height="20" as="geometry">
            <mxRectangle width="60" height="20" as="alternateBounds" />
          </mxGeometry>
        </mxCell>
        <mxCell id="B20BPbvxoQNRa6osuwxp-53" value="I" style="shape=partialRectangle;html=1;whiteSpace=wrap;connectable=0;strokeColor=inherit;overflow=hidden;fillColor=none;top=0;left=0;bottom=0;right=0;pointerEvents=1;" vertex="1" parent="B20BPbvxoQNRa6osuwxp-51">
          <mxGeometry x="60" width="60" height="20" as="geometry">
            <mxRectangle width="60" height="20" as="alternateBounds" />
          </mxGeometry>
        </mxCell>
        <mxCell id="B20BPbvxoQNRa6osuwxp-54" value="P(L)" style="shape=partialRectangle;html=1;whiteSpace=wrap;connectable=0;strokeColor=inherit;overflow=hidden;fillColor=none;top=0;left=0;bottom=0;right=0;pointerEvents=1;" vertex="1" parent="B20BPbvxoQNRa6osuwxp-51">
          <mxGeometry x="120" width="60" height="20" as="geometry">
            <mxRectangle width="60" height="20" as="alternateBounds" />
          </mxGeometry>
        </mxCell>
        <mxCell id="B20BPbvxoQNRa6osuwxp-55" value="" style="shape=tableRow;horizontal=0;startSize=0;swimlaneHead=0;swimlaneBody=0;strokeColor=inherit;top=0;left=0;bottom=0;right=0;collapsible=0;dropTarget=0;fillColor=none;points=[[0,0.5],[1,0.5]];portConstraint=eastwest;" vertex="1" parent="B20BPbvxoQNRa6osuwxp-50">
          <mxGeometry y="20" width="180" height="26" as="geometry" />
        </mxCell>
        <mxCell id="B20BPbvxoQNRa6osuwxp-56" value="true" style="shape=partialRectangle;html=1;whiteSpace=wrap;connectable=0;strokeColor=inherit;overflow=hidden;fillColor=none;top=0;left=0;bottom=0;right=0;pointerEvents=1;" vertex="1" parent="B20BPbvxoQNRa6osuwxp-55">
          <mxGeometry width="60" height="26" as="geometry">
            <mxRectangle width="60" height="26" as="alternateBounds" />
          </mxGeometry>
        </mxCell>
        <mxCell id="B20BPbvxoQNRa6osuwxp-57" value="true" style="shape=partialRectangle;html=1;whiteSpace=wrap;connectable=0;strokeColor=inherit;overflow=hidden;fillColor=none;top=0;left=0;bottom=0;right=0;pointerEvents=1;" vertex="1" parent="B20BPbvxoQNRa6osuwxp-55">
          <mxGeometry x="60" width="60" height="26" as="geometry">
            <mxRectangle width="60" height="26" as="alternateBounds" />
          </mxGeometry>
        </mxCell>
        <mxCell id="B20BPbvxoQNRa6osuwxp-58" value="0.8" style="shape=partialRectangle;html=1;whiteSpace=wrap;connectable=0;strokeColor=inherit;overflow=hidden;fillColor=none;top=0;left=0;bottom=0;right=0;pointerEvents=1;" vertex="1" parent="B20BPbvxoQNRa6osuwxp-55">
          <mxGeometry x="120" width="60" height="26" as="geometry">
            <mxRectangle width="60" height="26" as="alternateBounds" />
          </mxGeometry>
        </mxCell>
        <mxCell id="B20BPbvxoQNRa6osuwxp-59" value="" style="shape=tableRow;horizontal=0;startSize=0;swimlaneHead=0;swimlaneBody=0;strokeColor=inherit;top=0;left=0;bottom=0;right=0;collapsible=0;dropTarget=0;fillColor=none;points=[[0,0.5],[1,0.5]];portConstraint=eastwest;" vertex="1" parent="B20BPbvxoQNRa6osuwxp-50">
          <mxGeometry y="46" width="180" height="26" as="geometry" />
        </mxCell>
        <mxCell id="B20BPbvxoQNRa6osuwxp-60" value="true" style="shape=partialRectangle;html=1;whiteSpace=wrap;connectable=0;strokeColor=inherit;overflow=hidden;fillColor=none;top=0;left=0;bottom=0;right=0;pointerEvents=1;" vertex="1" parent="B20BPbvxoQNRa6osuwxp-59">
          <mxGeometry width="60" height="26" as="geometry">
            <mxRectangle width="60" height="26" as="alternateBounds" />
          </mxGeometry>
        </mxCell>
        <mxCell id="B20BPbvxoQNRa6osuwxp-61" value="false" style="shape=partialRectangle;html=1;whiteSpace=wrap;connectable=0;strokeColor=inherit;overflow=hidden;fillColor=none;top=0;left=0;bottom=0;right=0;pointerEvents=1;" vertex="1" parent="B20BPbvxoQNRa6osuwxp-59">
          <mxGeometry x="60" width="60" height="26" as="geometry">
            <mxRectangle width="60" height="26" as="alternateBounds" />
          </mxGeometry>
        </mxCell>
        <mxCell id="B20BPbvxoQNRa6osuwxp-62" value="0.7" style="shape=partialRectangle;html=1;whiteSpace=wrap;connectable=0;strokeColor=inherit;overflow=hidden;fillColor=none;top=0;left=0;bottom=0;right=0;pointerEvents=1;" vertex="1" parent="B20BPbvxoQNRa6osuwxp-59">
          <mxGeometry x="120" width="60" height="26" as="geometry">
            <mxRectangle width="60" height="26" as="alternateBounds" />
          </mxGeometry>
        </mxCell>
        <mxCell id="B20BPbvxoQNRa6osuwxp-63" value="" style="shape=tableRow;horizontal=0;startSize=0;swimlaneHead=0;swimlaneBody=0;strokeColor=inherit;top=0;left=0;bottom=0;right=0;collapsible=0;dropTarget=0;fillColor=none;points=[[0,0.5],[1,0.5]];portConstraint=eastwest;" vertex="1" parent="B20BPbvxoQNRa6osuwxp-50">
          <mxGeometry y="72" width="180" height="26" as="geometry" />
        </mxCell>
        <mxCell id="B20BPbvxoQNRa6osuwxp-64" value="false" style="shape=partialRectangle;html=1;whiteSpace=wrap;connectable=0;strokeColor=inherit;overflow=hidden;fillColor=none;top=0;left=0;bottom=0;right=0;pointerEvents=1;" vertex="1" parent="B20BPbvxoQNRa6osuwxp-63">
          <mxGeometry width="60" height="26" as="geometry">
            <mxRectangle width="60" height="26" as="alternateBounds" />
          </mxGeometry>
        </mxCell>
        <mxCell id="B20BPbvxoQNRa6osuwxp-65" value="true" style="shape=partialRectangle;html=1;whiteSpace=wrap;connectable=0;strokeColor=inherit;overflow=hidden;fillColor=none;top=0;left=0;bottom=0;right=0;pointerEvents=1;" vertex="1" parent="B20BPbvxoQNRa6osuwxp-63">
          <mxGeometry x="60" width="60" height="26" as="geometry">
            <mxRectangle width="60" height="26" as="alternateBounds" />
          </mxGeometry>
        </mxCell>
        <mxCell id="B20BPbvxoQNRa6osuwxp-66" value="0.6" style="shape=partialRectangle;html=1;whiteSpace=wrap;connectable=0;strokeColor=inherit;overflow=hidden;fillColor=none;top=0;left=0;bottom=0;right=0;pointerEvents=1;" vertex="1" parent="B20BPbvxoQNRa6osuwxp-63">
          <mxGeometry x="120" width="60" height="26" as="geometry">
            <mxRectangle width="60" height="26" as="alternateBounds" />
          </mxGeometry>
        </mxCell>
        <mxCell id="B20BPbvxoQNRa6osuwxp-67" value="" style="shape=tableRow;horizontal=0;startSize=0;swimlaneHead=0;swimlaneBody=0;strokeColor=inherit;top=0;left=0;bottom=0;right=0;collapsible=0;dropTarget=0;fillColor=none;points=[[0,0.5],[1,0.5]];portConstraint=eastwest;" vertex="1" parent="B20BPbvxoQNRa6osuwxp-50">
          <mxGeometry y="98" width="180" height="26" as="geometry" />
        </mxCell>
        <mxCell id="B20BPbvxoQNRa6osuwxp-68" value="false" style="shape=partialRectangle;html=1;whiteSpace=wrap;connectable=0;strokeColor=inherit;overflow=hidden;fillColor=none;top=0;left=0;bottom=0;right=0;pointerEvents=1;" vertex="1" parent="B20BPbvxoQNRa6osuwxp-67">
          <mxGeometry width="60" height="26" as="geometry">
            <mxRectangle width="60" height="26" as="alternateBounds" />
          </mxGeometry>
        </mxCell>
        <mxCell id="B20BPbvxoQNRa6osuwxp-69" value="false" style="shape=partialRectangle;html=1;whiteSpace=wrap;connectable=0;strokeColor=inherit;overflow=hidden;fillColor=none;top=0;left=0;bottom=0;right=0;pointerEvents=1;" vertex="1" parent="B20BPbvxoQNRa6osuwxp-67">
          <mxGeometry x="60" width="60" height="26" as="geometry">
            <mxRectangle width="60" height="26" as="alternateBounds" />
          </mxGeometry>
        </mxCell>
        <mxCell id="B20BPbvxoQNRa6osuwxp-70" value="0.2" style="shape=partialRectangle;html=1;whiteSpace=wrap;connectable=0;strokeColor=inherit;overflow=hidden;fillColor=none;top=0;left=0;bottom=0;right=0;pointerEvents=1;" vertex="1" parent="B20BPbvxoQNRa6osuwxp-67">
          <mxGeometry x="120" width="60" height="26" as="geometry">
            <mxRectangle width="60" height="26" as="alternateBounds" />
          </mxGeometry>
        </mxCell>
        <mxCell id="B20BPbvxoQNRa6osuwxp-71" style="edgeStyle=orthogonalEdgeStyle;rounded=0;orthogonalLoop=1;jettySize=auto;html=1;exitX=1;exitY=0.5;exitDx=0;exitDy=0;entryX=0;entryY=0.5;entryDx=0;entryDy=0;dashed=1;dashPattern=1 4;curved=1;" edge="1" parent="1" source="B20BPbvxoQNRa6osuwxp-63" target="CAmONdcAL_RtEgoEtn1a-17">
          <mxGeometry relative="1" as="geometry" />
        </mxCell>
        <mxCell id="B20BPbvxoQNRa6osuwxp-72" value="" style="shape=table;startSize=0;container=1;collapsible=0;childLayout=tableLayout;" vertex="1" parent="1">
          <mxGeometry x="350" y="1670" width="60" height="70" as="geometry" />
        </mxCell>
        <mxCell id="B20BPbvxoQNRa6osuwxp-73" value="" style="shape=tableRow;horizontal=0;startSize=0;swimlaneHead=0;swimlaneBody=0;strokeColor=inherit;top=0;left=0;bottom=0;right=0;collapsible=0;dropTarget=0;fillColor=none;points=[[0,0.5],[1,0.5]];portConstraint=eastwest;" vertex="1" parent="B20BPbvxoQNRa6osuwxp-72">
          <mxGeometry width="60" height="30" as="geometry" />
        </mxCell>
        <mxCell id="B20BPbvxoQNRa6osuwxp-74" value="P(R)" style="shape=partialRectangle;html=1;whiteSpace=wrap;connectable=0;strokeColor=inherit;overflow=hidden;fillColor=none;top=0;left=0;bottom=0;right=0;pointerEvents=1;" vertex="1" parent="B20BPbvxoQNRa6osuwxp-73">
          <mxGeometry width="60" height="30" as="geometry">
            <mxRectangle width="60" height="30" as="alternateBounds" />
          </mxGeometry>
        </mxCell>
        <mxCell id="B20BPbvxoQNRa6osuwxp-75" value="" style="shape=tableRow;horizontal=0;startSize=0;swimlaneHead=0;swimlaneBody=0;strokeColor=inherit;top=0;left=0;bottom=0;right=0;collapsible=0;dropTarget=0;fillColor=none;points=[[0,0.5],[1,0.5]];portConstraint=eastwest;" vertex="1" parent="B20BPbvxoQNRa6osuwxp-72">
          <mxGeometry y="30" width="60" height="40" as="geometry" />
        </mxCell>
        <mxCell id="B20BPbvxoQNRa6osuwxp-76" value="0.3" style="shape=partialRectangle;html=1;whiteSpace=wrap;connectable=0;strokeColor=inherit;overflow=hidden;fillColor=none;top=0;left=0;bottom=0;right=0;pointerEvents=1;" vertex="1" parent="B20BPbvxoQNRa6osuwxp-75">
          <mxGeometry width="60" height="40" as="geometry">
            <mxRectangle width="60" height="40" as="alternateBounds" />
          </mxGeometry>
        </mxCell>
        <mxCell id="B20BPbvxoQNRa6osuwxp-77" value="" style="shape=table;startSize=0;container=1;collapsible=0;childLayout=tableLayout;" vertex="1" parent="1">
          <mxGeometry x="551" y="1670" width="60" height="70" as="geometry" />
        </mxCell>
        <mxCell id="B20BPbvxoQNRa6osuwxp-78" value="" style="shape=tableRow;horizontal=0;startSize=0;swimlaneHead=0;swimlaneBody=0;strokeColor=inherit;top=0;left=0;bottom=0;right=0;collapsible=0;dropTarget=0;fillColor=none;points=[[0,0.5],[1,0.5]];portConstraint=eastwest;" vertex="1" parent="B20BPbvxoQNRa6osuwxp-77">
          <mxGeometry width="60" height="30" as="geometry" />
        </mxCell>
        <mxCell id="B20BPbvxoQNRa6osuwxp-79" value="P(T)" style="shape=partialRectangle;html=1;whiteSpace=wrap;connectable=0;strokeColor=inherit;overflow=hidden;fillColor=none;top=0;left=0;bottom=0;right=0;pointerEvents=1;" vertex="1" parent="B20BPbvxoQNRa6osuwxp-78">
          <mxGeometry width="60" height="30" as="geometry">
            <mxRectangle width="60" height="30" as="alternateBounds" />
          </mxGeometry>
        </mxCell>
        <mxCell id="B20BPbvxoQNRa6osuwxp-80" value="" style="shape=tableRow;horizontal=0;startSize=0;swimlaneHead=0;swimlaneBody=0;strokeColor=inherit;top=0;left=0;bottom=0;right=0;collapsible=0;dropTarget=0;fillColor=none;points=[[0,0.5],[1,0.5]];portConstraint=eastwest;" vertex="1" parent="B20BPbvxoQNRa6osuwxp-77">
          <mxGeometry y="30" width="60" height="40" as="geometry" />
        </mxCell>
        <mxCell id="B20BPbvxoQNRa6osuwxp-81" value="0.4" style="shape=partialRectangle;html=1;whiteSpace=wrap;connectable=0;strokeColor=inherit;overflow=hidden;fillColor=none;top=0;left=0;bottom=0;right=0;pointerEvents=1;" vertex="1" parent="B20BPbvxoQNRa6osuwxp-80">
          <mxGeometry width="60" height="40" as="geometry">
            <mxRectangle width="60" height="40" as="alternateBounds" />
          </mxGeometry>
        </mxCell>
        <mxCell id="B20BPbvxoQNRa6osuwxp-86" style="edgeStyle=orthogonalEdgeStyle;rounded=0;orthogonalLoop=1;jettySize=auto;html=1;exitX=0;exitY=0.5;exitDx=0;exitDy=0;entryX=0.5;entryY=0;entryDx=0;entryDy=0;dashed=1;dashPattern=12 12;curved=1;" edge="1" parent="1" source="B20BPbvxoQNRa6osuwxp-75" target="CAmONdcAL_RtEgoEtn1a-19">
          <mxGeometry relative="1" as="geometry" />
        </mxCell>
        <mxCell id="B20BPbvxoQNRa6osuwxp-87" style="edgeStyle=orthogonalEdgeStyle;rounded=0;orthogonalLoop=1;jettySize=auto;html=1;exitX=0;exitY=0.5;exitDx=0;exitDy=0;entryX=0.5;entryY=0;entryDx=0;entryDy=0;curved=1;dashed=1;dashPattern=1 2;" edge="1" parent="1" source="B20BPbvxoQNRa6osuwxp-80" target="CAmONdcAL_RtEgoEtn1a-20">
          <mxGeometry relative="1" as="geometry" />
        </mxCell>
        <mxCell id="B20BPbvxoQNRa6osuwxp-88" value="" style="shape=table;startSize=0;container=1;collapsible=0;childLayout=tableLayout;" vertex="1" parent="1">
          <mxGeometry x="-50" y="1900" width="240" height="180" as="geometry" />
        </mxCell>
        <mxCell id="B20BPbvxoQNRa6osuwxp-89" value="" style="shape=tableRow;horizontal=0;startSize=0;swimlaneHead=0;swimlaneBody=0;strokeColor=inherit;top=0;left=0;bottom=0;right=0;collapsible=0;dropTarget=0;fillColor=none;points=[[0,0.5],[1,0.5]];portConstraint=eastwest;" vertex="1" parent="B20BPbvxoQNRa6osuwxp-88">
          <mxGeometry width="240" height="20" as="geometry" />
        </mxCell>
        <mxCell id="B20BPbvxoQNRa6osuwxp-90" value="L" style="shape=partialRectangle;html=1;whiteSpace=wrap;connectable=0;strokeColor=inherit;overflow=hidden;fillColor=none;top=0;left=0;bottom=0;right=0;pointerEvents=1;" vertex="1" parent="B20BPbvxoQNRa6osuwxp-89">
          <mxGeometry width="60" height="20" as="geometry">
            <mxRectangle width="60" height="20" as="alternateBounds" />
          </mxGeometry>
        </mxCell>
        <mxCell id="B20BPbvxoQNRa6osuwxp-91" value="R" style="shape=partialRectangle;html=1;whiteSpace=wrap;connectable=0;strokeColor=inherit;overflow=hidden;fillColor=none;top=0;left=0;bottom=0;right=0;pointerEvents=1;" vertex="1" parent="B20BPbvxoQNRa6osuwxp-89">
          <mxGeometry x="60" width="60" height="20" as="geometry">
            <mxRectangle width="60" height="20" as="alternateBounds" />
          </mxGeometry>
        </mxCell>
        <mxCell id="B20BPbvxoQNRa6osuwxp-92" value="T" style="shape=partialRectangle;html=1;whiteSpace=wrap;connectable=0;strokeColor=inherit;overflow=hidden;fillColor=none;top=0;left=0;bottom=0;right=0;pointerEvents=1;" vertex="1" parent="B20BPbvxoQNRa6osuwxp-89">
          <mxGeometry x="120" width="60" height="20" as="geometry">
            <mxRectangle width="60" height="20" as="alternateBounds" />
          </mxGeometry>
        </mxCell>
        <mxCell id="B20BPbvxoQNRa6osuwxp-93" value="P(K)" style="shape=partialRectangle;html=1;whiteSpace=wrap;connectable=0;strokeColor=inherit;overflow=hidden;fillColor=none;top=0;left=0;bottom=0;right=0;pointerEvents=1;" vertex="1" parent="B20BPbvxoQNRa6osuwxp-89">
          <mxGeometry x="180" width="60" height="20" as="geometry">
            <mxRectangle width="60" height="20" as="alternateBounds" />
          </mxGeometry>
        </mxCell>
        <mxCell id="B20BPbvxoQNRa6osuwxp-94" value="" style="shape=tableRow;horizontal=0;startSize=0;swimlaneHead=0;swimlaneBody=0;strokeColor=inherit;top=0;left=0;bottom=0;right=0;collapsible=0;dropTarget=0;fillColor=none;points=[[0,0.5],[1,0.5]];portConstraint=eastwest;" vertex="1" parent="B20BPbvxoQNRa6osuwxp-88">
          <mxGeometry y="20" width="240" height="20" as="geometry" />
        </mxCell>
        <mxCell id="B20BPbvxoQNRa6osuwxp-95" value="true" style="shape=partialRectangle;html=1;whiteSpace=wrap;connectable=0;strokeColor=inherit;overflow=hidden;fillColor=none;top=0;left=0;bottom=0;right=0;pointerEvents=1;" vertex="1" parent="B20BPbvxoQNRa6osuwxp-94">
          <mxGeometry width="60" height="20" as="geometry">
            <mxRectangle width="60" height="20" as="alternateBounds" />
          </mxGeometry>
        </mxCell>
        <mxCell id="B20BPbvxoQNRa6osuwxp-96" value="true" style="shape=partialRectangle;html=1;whiteSpace=wrap;connectable=0;strokeColor=inherit;overflow=hidden;fillColor=none;top=0;left=0;bottom=0;right=0;pointerEvents=1;" vertex="1" parent="B20BPbvxoQNRa6osuwxp-94">
          <mxGeometry x="60" width="60" height="20" as="geometry">
            <mxRectangle width="60" height="20" as="alternateBounds" />
          </mxGeometry>
        </mxCell>
        <mxCell id="B20BPbvxoQNRa6osuwxp-97" value="true" style="shape=partialRectangle;html=1;whiteSpace=wrap;connectable=0;strokeColor=inherit;overflow=hidden;fillColor=none;top=0;left=0;bottom=0;right=0;pointerEvents=1;" vertex="1" parent="B20BPbvxoQNRa6osuwxp-94">
          <mxGeometry x="120" width="60" height="20" as="geometry">
            <mxRectangle width="60" height="20" as="alternateBounds" />
          </mxGeometry>
        </mxCell>
        <mxCell id="B20BPbvxoQNRa6osuwxp-98" value="0.95" style="shape=partialRectangle;html=1;whiteSpace=wrap;connectable=0;strokeColor=inherit;overflow=hidden;fillColor=none;top=0;left=0;bottom=0;right=0;pointerEvents=1;" vertex="1" parent="B20BPbvxoQNRa6osuwxp-94">
          <mxGeometry x="180" width="60" height="20" as="geometry">
            <mxRectangle width="60" height="20" as="alternateBounds" />
          </mxGeometry>
        </mxCell>
        <mxCell id="B20BPbvxoQNRa6osuwxp-99" value="" style="shape=tableRow;horizontal=0;startSize=0;swimlaneHead=0;swimlaneBody=0;strokeColor=inherit;top=0;left=0;bottom=0;right=0;collapsible=0;dropTarget=0;fillColor=none;points=[[0,0.5],[1,0.5]];portConstraint=eastwest;" vertex="1" parent="B20BPbvxoQNRa6osuwxp-88">
          <mxGeometry y="40" width="240" height="20" as="geometry" />
        </mxCell>
        <mxCell id="B20BPbvxoQNRa6osuwxp-100" value="true" style="shape=partialRectangle;html=1;whiteSpace=wrap;connectable=0;strokeColor=inherit;overflow=hidden;fillColor=none;top=0;left=0;bottom=0;right=0;pointerEvents=1;" vertex="1" parent="B20BPbvxoQNRa6osuwxp-99">
          <mxGeometry width="60" height="20" as="geometry">
            <mxRectangle width="60" height="20" as="alternateBounds" />
          </mxGeometry>
        </mxCell>
        <mxCell id="B20BPbvxoQNRa6osuwxp-101" value="true" style="shape=partialRectangle;html=1;whiteSpace=wrap;connectable=0;strokeColor=inherit;overflow=hidden;fillColor=none;top=0;left=0;bottom=0;right=0;pointerEvents=1;" vertex="1" parent="B20BPbvxoQNRa6osuwxp-99">
          <mxGeometry x="60" width="60" height="20" as="geometry">
            <mxRectangle width="60" height="20" as="alternateBounds" />
          </mxGeometry>
        </mxCell>
        <mxCell id="B20BPbvxoQNRa6osuwxp-102" value="false" style="shape=partialRectangle;html=1;whiteSpace=wrap;connectable=0;strokeColor=inherit;overflow=hidden;fillColor=none;top=0;left=0;bottom=0;right=0;pointerEvents=1;" vertex="1" parent="B20BPbvxoQNRa6osuwxp-99">
          <mxGeometry x="120" width="60" height="20" as="geometry">
            <mxRectangle width="60" height="20" as="alternateBounds" />
          </mxGeometry>
        </mxCell>
        <mxCell id="B20BPbvxoQNRa6osuwxp-103" value="0.9" style="shape=partialRectangle;html=1;whiteSpace=wrap;connectable=0;strokeColor=inherit;overflow=hidden;fillColor=none;top=0;left=0;bottom=0;right=0;pointerEvents=1;" vertex="1" parent="B20BPbvxoQNRa6osuwxp-99">
          <mxGeometry x="180" width="60" height="20" as="geometry">
            <mxRectangle width="60" height="20" as="alternateBounds" />
          </mxGeometry>
        </mxCell>
        <mxCell id="B20BPbvxoQNRa6osuwxp-104" value="" style="shape=tableRow;horizontal=0;startSize=0;swimlaneHead=0;swimlaneBody=0;strokeColor=inherit;top=0;left=0;bottom=0;right=0;collapsible=0;dropTarget=0;fillColor=none;points=[[0,0.5],[1,0.5]];portConstraint=eastwest;" vertex="1" parent="B20BPbvxoQNRa6osuwxp-88">
          <mxGeometry y="60" width="240" height="20" as="geometry" />
        </mxCell>
        <mxCell id="B20BPbvxoQNRa6osuwxp-105" value="true" style="shape=partialRectangle;html=1;whiteSpace=wrap;connectable=0;strokeColor=inherit;overflow=hidden;fillColor=none;top=0;left=0;bottom=0;right=0;pointerEvents=1;" vertex="1" parent="B20BPbvxoQNRa6osuwxp-104">
          <mxGeometry width="60" height="20" as="geometry">
            <mxRectangle width="60" height="20" as="alternateBounds" />
          </mxGeometry>
        </mxCell>
        <mxCell id="B20BPbvxoQNRa6osuwxp-106" value="false" style="shape=partialRectangle;html=1;whiteSpace=wrap;connectable=0;strokeColor=inherit;overflow=hidden;fillColor=none;top=0;left=0;bottom=0;right=0;pointerEvents=1;" vertex="1" parent="B20BPbvxoQNRa6osuwxp-104">
          <mxGeometry x="60" width="60" height="20" as="geometry">
            <mxRectangle width="60" height="20" as="alternateBounds" />
          </mxGeometry>
        </mxCell>
        <mxCell id="B20BPbvxoQNRa6osuwxp-107" value="true" style="shape=partialRectangle;html=1;whiteSpace=wrap;connectable=0;strokeColor=inherit;overflow=hidden;fillColor=none;top=0;left=0;bottom=0;right=0;pointerEvents=1;" vertex="1" parent="B20BPbvxoQNRa6osuwxp-104">
          <mxGeometry x="120" width="60" height="20" as="geometry">
            <mxRectangle width="60" height="20" as="alternateBounds" />
          </mxGeometry>
        </mxCell>
        <mxCell id="B20BPbvxoQNRa6osuwxp-108" value="0.85" style="shape=partialRectangle;html=1;whiteSpace=wrap;connectable=0;strokeColor=inherit;overflow=hidden;fillColor=none;top=0;left=0;bottom=0;right=0;pointerEvents=1;" vertex="1" parent="B20BPbvxoQNRa6osuwxp-104">
          <mxGeometry x="180" width="60" height="20" as="geometry">
            <mxRectangle width="60" height="20" as="alternateBounds" />
          </mxGeometry>
        </mxCell>
        <mxCell id="B20BPbvxoQNRa6osuwxp-109" value="" style="shape=tableRow;horizontal=0;startSize=0;swimlaneHead=0;swimlaneBody=0;strokeColor=inherit;top=0;left=0;bottom=0;right=0;collapsible=0;dropTarget=0;fillColor=none;points=[[0,0.5],[1,0.5]];portConstraint=eastwest;" vertex="1" parent="B20BPbvxoQNRa6osuwxp-88">
          <mxGeometry y="80" width="240" height="20" as="geometry" />
        </mxCell>
        <mxCell id="B20BPbvxoQNRa6osuwxp-110" value="true" style="shape=partialRectangle;html=1;whiteSpace=wrap;connectable=0;strokeColor=inherit;overflow=hidden;fillColor=none;top=0;left=0;bottom=0;right=0;pointerEvents=1;" vertex="1" parent="B20BPbvxoQNRa6osuwxp-109">
          <mxGeometry width="60" height="20" as="geometry">
            <mxRectangle width="60" height="20" as="alternateBounds" />
          </mxGeometry>
        </mxCell>
        <mxCell id="B20BPbvxoQNRa6osuwxp-111" value="false" style="shape=partialRectangle;html=1;whiteSpace=wrap;connectable=0;strokeColor=inherit;overflow=hidden;fillColor=none;top=0;left=0;bottom=0;right=0;pointerEvents=1;" vertex="1" parent="B20BPbvxoQNRa6osuwxp-109">
          <mxGeometry x="60" width="60" height="20" as="geometry">
            <mxRectangle width="60" height="20" as="alternateBounds" />
          </mxGeometry>
        </mxCell>
        <mxCell id="B20BPbvxoQNRa6osuwxp-112" value="false" style="shape=partialRectangle;html=1;whiteSpace=wrap;connectable=0;strokeColor=inherit;overflow=hidden;fillColor=none;top=0;left=0;bottom=0;right=0;pointerEvents=1;" vertex="1" parent="B20BPbvxoQNRa6osuwxp-109">
          <mxGeometry x="120" width="60" height="20" as="geometry">
            <mxRectangle width="60" height="20" as="alternateBounds" />
          </mxGeometry>
        </mxCell>
        <mxCell id="B20BPbvxoQNRa6osuwxp-113" value="0.8" style="shape=partialRectangle;html=1;whiteSpace=wrap;connectable=0;strokeColor=inherit;overflow=hidden;fillColor=none;top=0;left=0;bottom=0;right=0;pointerEvents=1;" vertex="1" parent="B20BPbvxoQNRa6osuwxp-109">
          <mxGeometry x="180" width="60" height="20" as="geometry">
            <mxRectangle width="60" height="20" as="alternateBounds" />
          </mxGeometry>
        </mxCell>
        <mxCell id="B20BPbvxoQNRa6osuwxp-114" value="" style="shape=tableRow;horizontal=0;startSize=0;swimlaneHead=0;swimlaneBody=0;strokeColor=inherit;top=0;left=0;bottom=0;right=0;collapsible=0;dropTarget=0;fillColor=none;points=[[0,0.5],[1,0.5]];portConstraint=eastwest;" vertex="1" parent="B20BPbvxoQNRa6osuwxp-88">
          <mxGeometry y="100" width="240" height="20" as="geometry" />
        </mxCell>
        <mxCell id="B20BPbvxoQNRa6osuwxp-115" value="false" style="shape=partialRectangle;html=1;whiteSpace=wrap;connectable=0;strokeColor=inherit;overflow=hidden;fillColor=none;top=0;left=0;bottom=0;right=0;pointerEvents=1;" vertex="1" parent="B20BPbvxoQNRa6osuwxp-114">
          <mxGeometry width="60" height="20" as="geometry">
            <mxRectangle width="60" height="20" as="alternateBounds" />
          </mxGeometry>
        </mxCell>
        <mxCell id="B20BPbvxoQNRa6osuwxp-116" value="true" style="shape=partialRectangle;html=1;whiteSpace=wrap;connectable=0;strokeColor=inherit;overflow=hidden;fillColor=none;top=0;left=0;bottom=0;right=0;pointerEvents=1;" vertex="1" parent="B20BPbvxoQNRa6osuwxp-114">
          <mxGeometry x="60" width="60" height="20" as="geometry">
            <mxRectangle width="60" height="20" as="alternateBounds" />
          </mxGeometry>
        </mxCell>
        <mxCell id="B20BPbvxoQNRa6osuwxp-117" value="true" style="shape=partialRectangle;html=1;whiteSpace=wrap;connectable=0;strokeColor=inherit;overflow=hidden;fillColor=none;top=0;left=0;bottom=0;right=0;pointerEvents=1;" vertex="1" parent="B20BPbvxoQNRa6osuwxp-114">
          <mxGeometry x="120" width="60" height="20" as="geometry">
            <mxRectangle width="60" height="20" as="alternateBounds" />
          </mxGeometry>
        </mxCell>
        <mxCell id="B20BPbvxoQNRa6osuwxp-118" value="0.7" style="shape=partialRectangle;html=1;whiteSpace=wrap;connectable=0;strokeColor=inherit;overflow=hidden;fillColor=none;top=0;left=0;bottom=0;right=0;pointerEvents=1;" vertex="1" parent="B20BPbvxoQNRa6osuwxp-114">
          <mxGeometry x="180" width="60" height="20" as="geometry">
            <mxRectangle width="60" height="20" as="alternateBounds" />
          </mxGeometry>
        </mxCell>
        <mxCell id="B20BPbvxoQNRa6osuwxp-119" value="" style="shape=tableRow;horizontal=0;startSize=0;swimlaneHead=0;swimlaneBody=0;strokeColor=inherit;top=0;left=0;bottom=0;right=0;collapsible=0;dropTarget=0;fillColor=none;points=[[0,0.5],[1,0.5]];portConstraint=eastwest;" vertex="1" parent="B20BPbvxoQNRa6osuwxp-88">
          <mxGeometry y="120" width="240" height="20" as="geometry" />
        </mxCell>
        <mxCell id="B20BPbvxoQNRa6osuwxp-120" value="false" style="shape=partialRectangle;html=1;whiteSpace=wrap;connectable=0;strokeColor=inherit;overflow=hidden;fillColor=none;top=0;left=0;bottom=0;right=0;pointerEvents=1;" vertex="1" parent="B20BPbvxoQNRa6osuwxp-119">
          <mxGeometry width="60" height="20" as="geometry">
            <mxRectangle width="60" height="20" as="alternateBounds" />
          </mxGeometry>
        </mxCell>
        <mxCell id="B20BPbvxoQNRa6osuwxp-121" value="false" style="shape=partialRectangle;html=1;whiteSpace=wrap;connectable=0;strokeColor=inherit;overflow=hidden;fillColor=none;top=0;left=0;bottom=0;right=0;pointerEvents=1;" vertex="1" parent="B20BPbvxoQNRa6osuwxp-119">
          <mxGeometry x="60" width="60" height="20" as="geometry">
            <mxRectangle width="60" height="20" as="alternateBounds" />
          </mxGeometry>
        </mxCell>
        <mxCell id="B20BPbvxoQNRa6osuwxp-122" value="true" style="shape=partialRectangle;html=1;whiteSpace=wrap;connectable=0;strokeColor=inherit;overflow=hidden;fillColor=none;top=0;left=0;bottom=0;right=0;pointerEvents=1;" vertex="1" parent="B20BPbvxoQNRa6osuwxp-119">
          <mxGeometry x="120" width="60" height="20" as="geometry">
            <mxRectangle width="60" height="20" as="alternateBounds" />
          </mxGeometry>
        </mxCell>
        <mxCell id="B20BPbvxoQNRa6osuwxp-123" value="0.6" style="shape=partialRectangle;html=1;whiteSpace=wrap;connectable=0;strokeColor=inherit;overflow=hidden;fillColor=none;top=0;left=0;bottom=0;right=0;pointerEvents=1;" vertex="1" parent="B20BPbvxoQNRa6osuwxp-119">
          <mxGeometry x="180" width="60" height="20" as="geometry">
            <mxRectangle width="60" height="20" as="alternateBounds" />
          </mxGeometry>
        </mxCell>
        <mxCell id="B20BPbvxoQNRa6osuwxp-124" value="" style="shape=tableRow;horizontal=0;startSize=0;swimlaneHead=0;swimlaneBody=0;strokeColor=inherit;top=0;left=0;bottom=0;right=0;collapsible=0;dropTarget=0;fillColor=none;points=[[0,0.5],[1,0.5]];portConstraint=eastwest;" vertex="1" parent="B20BPbvxoQNRa6osuwxp-88">
          <mxGeometry y="140" width="240" height="20" as="geometry" />
        </mxCell>
        <mxCell id="B20BPbvxoQNRa6osuwxp-125" value="false" style="shape=partialRectangle;html=1;whiteSpace=wrap;connectable=0;strokeColor=inherit;overflow=hidden;fillColor=none;top=0;left=0;bottom=0;right=0;pointerEvents=1;" vertex="1" parent="B20BPbvxoQNRa6osuwxp-124">
          <mxGeometry width="60" height="20" as="geometry">
            <mxRectangle width="60" height="20" as="alternateBounds" />
          </mxGeometry>
        </mxCell>
        <mxCell id="B20BPbvxoQNRa6osuwxp-126" value="true" style="shape=partialRectangle;html=1;whiteSpace=wrap;connectable=0;strokeColor=inherit;overflow=hidden;fillColor=none;top=0;left=0;bottom=0;right=0;pointerEvents=1;" vertex="1" parent="B20BPbvxoQNRa6osuwxp-124">
          <mxGeometry x="60" width="60" height="20" as="geometry">
            <mxRectangle width="60" height="20" as="alternateBounds" />
          </mxGeometry>
        </mxCell>
        <mxCell id="B20BPbvxoQNRa6osuwxp-127" value="false" style="shape=partialRectangle;html=1;whiteSpace=wrap;connectable=0;strokeColor=inherit;overflow=hidden;fillColor=none;top=0;left=0;bottom=0;right=0;pointerEvents=1;" vertex="1" parent="B20BPbvxoQNRa6osuwxp-124">
          <mxGeometry x="120" width="60" height="20" as="geometry">
            <mxRectangle width="60" height="20" as="alternateBounds" />
          </mxGeometry>
        </mxCell>
        <mxCell id="B20BPbvxoQNRa6osuwxp-128" value="0.4" style="shape=partialRectangle;html=1;whiteSpace=wrap;connectable=0;strokeColor=inherit;overflow=hidden;fillColor=none;top=0;left=0;bottom=0;right=0;pointerEvents=1;" vertex="1" parent="B20BPbvxoQNRa6osuwxp-124">
          <mxGeometry x="180" width="60" height="20" as="geometry">
            <mxRectangle width="60" height="20" as="alternateBounds" />
          </mxGeometry>
        </mxCell>
        <mxCell id="B20BPbvxoQNRa6osuwxp-129" value="" style="shape=tableRow;horizontal=0;startSize=0;swimlaneHead=0;swimlaneBody=0;strokeColor=inherit;top=0;left=0;bottom=0;right=0;collapsible=0;dropTarget=0;fillColor=none;points=[[0,0.5],[1,0.5]];portConstraint=eastwest;" vertex="1" parent="B20BPbvxoQNRa6osuwxp-88">
          <mxGeometry y="160" width="240" height="20" as="geometry" />
        </mxCell>
        <mxCell id="B20BPbvxoQNRa6osuwxp-130" value="false" style="shape=partialRectangle;html=1;whiteSpace=wrap;connectable=0;strokeColor=inherit;overflow=hidden;fillColor=none;top=0;left=0;bottom=0;right=0;pointerEvents=1;" vertex="1" parent="B20BPbvxoQNRa6osuwxp-129">
          <mxGeometry width="60" height="20" as="geometry">
            <mxRectangle width="60" height="20" as="alternateBounds" />
          </mxGeometry>
        </mxCell>
        <mxCell id="B20BPbvxoQNRa6osuwxp-131" value="false" style="shape=partialRectangle;html=1;whiteSpace=wrap;connectable=0;strokeColor=inherit;overflow=hidden;fillColor=none;top=0;left=0;bottom=0;right=0;pointerEvents=1;" vertex="1" parent="B20BPbvxoQNRa6osuwxp-129">
          <mxGeometry x="60" width="60" height="20" as="geometry">
            <mxRectangle width="60" height="20" as="alternateBounds" />
          </mxGeometry>
        </mxCell>
        <mxCell id="B20BPbvxoQNRa6osuwxp-132" value="false" style="shape=partialRectangle;html=1;whiteSpace=wrap;connectable=0;strokeColor=inherit;overflow=hidden;fillColor=none;top=0;left=0;bottom=0;right=0;pointerEvents=1;" vertex="1" parent="B20BPbvxoQNRa6osuwxp-129">
          <mxGeometry x="120" width="60" height="20" as="geometry">
            <mxRectangle width="60" height="20" as="alternateBounds" />
          </mxGeometry>
        </mxCell>
        <mxCell id="B20BPbvxoQNRa6osuwxp-133" value="0.2" style="shape=partialRectangle;html=1;whiteSpace=wrap;connectable=0;strokeColor=inherit;overflow=hidden;fillColor=none;top=0;left=0;bottom=0;right=0;pointerEvents=1;" vertex="1" parent="B20BPbvxoQNRa6osuwxp-129">
          <mxGeometry x="180" width="60" height="20" as="geometry">
            <mxRectangle width="60" height="20" as="alternateBounds" />
          </mxGeometry>
        </mxCell>
        <mxCell id="B20BPbvxoQNRa6osuwxp-134" style="edgeStyle=orthogonalEdgeStyle;rounded=0;orthogonalLoop=1;jettySize=auto;html=1;exitX=1;exitY=0.5;exitDx=0;exitDy=0;entryX=0;entryY=0.5;entryDx=0;entryDy=0;dashed=1;dashPattern=8 8;curved=1;" edge="1" parent="1" source="B20BPbvxoQNRa6osuwxp-109" target="CAmONdcAL_RtEgoEtn1a-18">
          <mxGeometry relative="1" as="geometry" />
        </mxCell>
        <mxCell id="B20BPbvxoQNRa6osuwxp-135" value="" style="shape=table;startSize=0;container=1;collapsible=0;childLayout=tableLayout;" vertex="1" parent="1">
          <mxGeometry x="457.5" y="2100" width="165" height="71" as="geometry" />
        </mxCell>
        <mxCell id="B20BPbvxoQNRa6osuwxp-136" value="" style="shape=tableRow;horizontal=0;startSize=0;swimlaneHead=0;swimlaneBody=0;strokeColor=inherit;top=0;left=0;bottom=0;right=0;collapsible=0;dropTarget=0;fillColor=none;points=[[0,0.5],[1,0.5]];portConstraint=eastwest;" vertex="1" parent="B20BPbvxoQNRa6osuwxp-135">
          <mxGeometry width="165" height="23" as="geometry" />
        </mxCell>
        <mxCell id="B20BPbvxoQNRa6osuwxp-137" value="K" style="shape=partialRectangle;html=1;whiteSpace=wrap;connectable=0;strokeColor=inherit;overflow=hidden;fillColor=none;top=0;left=0;bottom=0;right=0;pointerEvents=1;" vertex="1" parent="B20BPbvxoQNRa6osuwxp-136">
          <mxGeometry width="83" height="23" as="geometry">
            <mxRectangle width="83" height="23" as="alternateBounds" />
          </mxGeometry>
        </mxCell>
        <mxCell id="B20BPbvxoQNRa6osuwxp-138" value="P(F)" style="shape=partialRectangle;html=1;whiteSpace=wrap;connectable=0;strokeColor=inherit;overflow=hidden;fillColor=none;top=0;left=0;bottom=0;right=0;pointerEvents=1;" vertex="1" parent="B20BPbvxoQNRa6osuwxp-136">
          <mxGeometry x="83" width="82" height="23" as="geometry">
            <mxRectangle width="82" height="23" as="alternateBounds" />
          </mxGeometry>
        </mxCell>
        <mxCell id="B20BPbvxoQNRa6osuwxp-139" value="" style="shape=tableRow;horizontal=0;startSize=0;swimlaneHead=0;swimlaneBody=0;strokeColor=inherit;top=0;left=0;bottom=0;right=0;collapsible=0;dropTarget=0;fillColor=none;points=[[0,0.5],[1,0.5]];portConstraint=eastwest;" vertex="1" parent="B20BPbvxoQNRa6osuwxp-135">
          <mxGeometry y="23" width="165" height="25" as="geometry" />
        </mxCell>
        <mxCell id="B20BPbvxoQNRa6osuwxp-140" value="true" style="shape=partialRectangle;html=1;whiteSpace=wrap;connectable=0;strokeColor=inherit;overflow=hidden;fillColor=none;top=0;left=0;bottom=0;right=0;pointerEvents=1;" vertex="1" parent="B20BPbvxoQNRa6osuwxp-139">
          <mxGeometry width="83" height="25" as="geometry">
            <mxRectangle width="83" height="25" as="alternateBounds" />
          </mxGeometry>
        </mxCell>
        <mxCell id="B20BPbvxoQNRa6osuwxp-141" value="0.8" style="shape=partialRectangle;html=1;whiteSpace=wrap;connectable=0;strokeColor=inherit;overflow=hidden;fillColor=none;top=0;left=0;bottom=0;right=0;pointerEvents=1;" vertex="1" parent="B20BPbvxoQNRa6osuwxp-139">
          <mxGeometry x="83" width="82" height="25" as="geometry">
            <mxRectangle width="82" height="25" as="alternateBounds" />
          </mxGeometry>
        </mxCell>
        <mxCell id="B20BPbvxoQNRa6osuwxp-142" value="" style="shape=tableRow;horizontal=0;startSize=0;swimlaneHead=0;swimlaneBody=0;strokeColor=inherit;top=0;left=0;bottom=0;right=0;collapsible=0;dropTarget=0;fillColor=none;points=[[0,0.5],[1,0.5]];portConstraint=eastwest;" vertex="1" parent="B20BPbvxoQNRa6osuwxp-135">
          <mxGeometry y="48" width="165" height="23" as="geometry" />
        </mxCell>
        <mxCell id="B20BPbvxoQNRa6osuwxp-143" value="false" style="shape=partialRectangle;html=1;whiteSpace=wrap;connectable=0;strokeColor=inherit;overflow=hidden;fillColor=none;top=0;left=0;bottom=0;right=0;pointerEvents=1;" vertex="1" parent="B20BPbvxoQNRa6osuwxp-142">
          <mxGeometry width="83" height="23" as="geometry">
            <mxRectangle width="83" height="23" as="alternateBounds" />
          </mxGeometry>
        </mxCell>
        <mxCell id="B20BPbvxoQNRa6osuwxp-144" value="0.3" style="shape=partialRectangle;html=1;whiteSpace=wrap;connectable=0;strokeColor=inherit;overflow=hidden;fillColor=none;top=0;left=0;bottom=0;right=0;pointerEvents=1;" vertex="1" parent="B20BPbvxoQNRa6osuwxp-142">
          <mxGeometry x="83" width="82" height="23" as="geometry">
            <mxRectangle width="82" height="23" as="alternateBounds" />
          </mxGeometry>
        </mxCell>
        <mxCell id="B20BPbvxoQNRa6osuwxp-145" style="edgeStyle=orthogonalEdgeStyle;rounded=0;orthogonalLoop=1;jettySize=auto;html=1;exitX=0;exitY=0.5;exitDx=0;exitDy=0;entryX=1;entryY=0.75;entryDx=0;entryDy=0;dashed=1;dashPattern=1 4;curved=1;" edge="1" parent="1" source="B20BPbvxoQNRa6osuwxp-139" target="CAmONdcAL_RtEgoEtn1a-21">
          <mxGeometry relative="1" as="geometry" />
        </mxCell>
        <mxCell id="B20BPbvxoQNRa6osuwxp-148" value="A" style="ellipse;whiteSpace=wrap;html=1;aspect=fixed;" vertex="1" parent="1">
          <mxGeometry x="-470" y="1100" width="80" height="80" as="geometry" />
        </mxCell>
        <mxCell id="B20BPbvxoQNRa6osuwxp-149" value="B" style="ellipse;whiteSpace=wrap;html=1;aspect=fixed;" vertex="1" parent="1">
          <mxGeometry x="-530" y="1230" width="80" height="80" as="geometry" />
        </mxCell>
        <mxCell id="B20BPbvxoQNRa6osuwxp-150" value="E" style="ellipse;whiteSpace=wrap;html=1;aspect=fixed;" vertex="1" parent="1">
          <mxGeometry x="-410" y="1230" width="80" height="80" as="geometry" />
        </mxCell>
        <mxCell id="B20BPbvxoQNRa6osuwxp-151" value="" style="endArrow=classic;html=1;rounded=0;entryX=0.5;entryY=0;entryDx=0;entryDy=0;exitX=0;exitY=1;exitDx=0;exitDy=0;" edge="1" parent="1" source="B20BPbvxoQNRa6osuwxp-148" target="B20BPbvxoQNRa6osuwxp-149">
          <mxGeometry width="50" height="50" relative="1" as="geometry">
            <mxPoint x="-370" y="1180" as="sourcePoint" />
            <mxPoint x="-320" y="1130" as="targetPoint" />
          </mxGeometry>
        </mxCell>
        <mxCell id="B20BPbvxoQNRa6osuwxp-152" value="" style="endArrow=classic;html=1;rounded=0;entryX=0.381;entryY=0.015;entryDx=0;entryDy=0;entryPerimeter=0;" edge="1" parent="1" target="B20BPbvxoQNRa6osuwxp-150">
          <mxGeometry width="50" height="50" relative="1" as="geometry">
            <mxPoint x="-402" y="1168" as="sourcePoint" />
            <mxPoint x="-380" y="1230" as="targetPoint" />
          </mxGeometry>
        </mxCell>
        <mxCell id="B20BPbvxoQNRa6osuwxp-153" value="C" style="ellipse;whiteSpace=wrap;html=1;aspect=fixed;" vertex="1" parent="1">
          <mxGeometry x="-580" y="1350" width="80" height="80" as="geometry" />
        </mxCell>
        <mxCell id="B20BPbvxoQNRa6osuwxp-154" value="D" style="ellipse;whiteSpace=wrap;html=1;aspect=fixed;" vertex="1" parent="1">
          <mxGeometry x="-480" y="1350" width="80" height="80" as="geometry" />
        </mxCell>
        <mxCell id="B20BPbvxoQNRa6osuwxp-155" value="" style="endArrow=classic;html=1;rounded=0;entryX=0.5;entryY=0;entryDx=0;entryDy=0;exitX=0;exitY=1;exitDx=0;exitDy=0;" edge="1" parent="1" source="B20BPbvxoQNRa6osuwxp-149" target="B20BPbvxoQNRa6osuwxp-153">
          <mxGeometry width="50" height="50" relative="1" as="geometry">
            <mxPoint x="-520" y="1370" as="sourcePoint" />
            <mxPoint x="-470" y="1320" as="targetPoint" />
          </mxGeometry>
        </mxCell>
        <mxCell id="B20BPbvxoQNRa6osuwxp-156" value="" style="endArrow=classic;html=1;rounded=0;entryX=0.5;entryY=0;entryDx=0;entryDy=0;exitX=1;exitY=1;exitDx=0;exitDy=0;" edge="1" parent="1" source="B20BPbvxoQNRa6osuwxp-149" target="B20BPbvxoQNRa6osuwxp-154">
          <mxGeometry width="50" height="50" relative="1" as="geometry">
            <mxPoint x="-390" y="1370" as="sourcePoint" />
            <mxPoint x="-340" y="1320" as="targetPoint" />
          </mxGeometry>
        </mxCell>
        <mxCell id="B20BPbvxoQNRa6osuwxp-157" value="F" style="ellipse;whiteSpace=wrap;html=1;aspect=fixed;" vertex="1" parent="1">
          <mxGeometry x="-380" y="1350" width="80" height="80" as="geometry" />
        </mxCell>
        <mxCell id="B20BPbvxoQNRa6osuwxp-158" value="" style="endArrow=classic;html=1;rounded=0;exitX=0.646;exitY=0.969;exitDx=0;exitDy=0;entryX=0.5;entryY=0;entryDx=0;entryDy=0;exitPerimeter=0;" edge="1" parent="1" source="B20BPbvxoQNRa6osuwxp-150" target="B20BPbvxoQNRa6osuwxp-157">
          <mxGeometry width="50" height="50" relative="1" as="geometry">
            <mxPoint x="-270" y="1330" as="sourcePoint" />
            <mxPoint x="-220" y="1280" as="targetPoint" />
          </mxGeometry>
        </mxCell>
        <mxCell id="B20BPbvxoQNRa6osuwxp-159" value="G" style="ellipse;whiteSpace=wrap;html=1;aspect=fixed;" vertex="1" parent="1">
          <mxGeometry x="-380" y="1460" width="80" height="80" as="geometry" />
        </mxCell>
        <mxCell id="B20BPbvxoQNRa6osuwxp-160" value="" style="endArrow=classic;html=1;rounded=0;entryX=0.5;entryY=0;entryDx=0;entryDy=0;exitX=0.5;exitY=1;exitDx=0;exitDy=0;" edge="1" parent="1" source="B20BPbvxoQNRa6osuwxp-157" target="B20BPbvxoQNRa6osuwxp-159">
          <mxGeometry width="50" height="50" relative="1" as="geometry">
            <mxPoint x="-250" y="1370" as="sourcePoint" />
            <mxPoint x="-200" y="1320" as="targetPoint" />
          </mxGeometry>
        </mxCell>
        <mxCell id="B20BPbvxoQNRa6osuwxp-161" value="" style="shape=table;html=1;whiteSpace=wrap;startSize=0;container=1;collapsible=0;childLayout=tableLayout;strokeWidth=2;" vertex="1" parent="1">
          <mxGeometry x="-740" y="1230" width="180" height="80" as="geometry" />
        </mxCell>
        <mxCell id="B20BPbvxoQNRa6osuwxp-162" value="" style="shape=tableRow;horizontal=0;startSize=0;swimlaneHead=0;swimlaneBody=0;top=0;left=0;bottom=0;right=0;collapsible=0;dropTarget=0;fillColor=none;points=[[0,0.5],[1,0.5]];portConstraint=eastwest;" vertex="1" parent="B20BPbvxoQNRa6osuwxp-161">
          <mxGeometry width="180" height="27" as="geometry" />
        </mxCell>
        <mxCell id="B20BPbvxoQNRa6osuwxp-163" value="A" style="shape=partialRectangle;html=1;whiteSpace=wrap;connectable=0;fillColor=none;top=0;left=0;bottom=0;right=0;overflow=hidden;fontStyle=1" vertex="1" parent="B20BPbvxoQNRa6osuwxp-162">
          <mxGeometry width="90" height="27" as="geometry">
            <mxRectangle width="90" height="27" as="alternateBounds" />
          </mxGeometry>
        </mxCell>
        <mxCell id="B20BPbvxoQNRa6osuwxp-164" value="P(B)" style="shape=partialRectangle;html=1;whiteSpace=wrap;connectable=0;fillColor=none;top=0;left=0;bottom=0;right=0;overflow=hidden;fontStyle=1" vertex="1" parent="B20BPbvxoQNRa6osuwxp-162">
          <mxGeometry x="90" width="90" height="27" as="geometry">
            <mxRectangle width="90" height="27" as="alternateBounds" />
          </mxGeometry>
        </mxCell>
        <mxCell id="B20BPbvxoQNRa6osuwxp-165" value="" style="shape=tableRow;horizontal=0;startSize=0;swimlaneHead=0;swimlaneBody=0;top=0;left=0;bottom=0;right=0;collapsible=0;dropTarget=0;fillColor=none;points=[[0,0.5],[1,0.5]];portConstraint=eastwest;" vertex="1" parent="B20BPbvxoQNRa6osuwxp-161">
          <mxGeometry y="27" width="180" height="26" as="geometry" />
        </mxCell>
        <mxCell id="B20BPbvxoQNRa6osuwxp-166" value="True" style="shape=partialRectangle;html=1;whiteSpace=wrap;connectable=0;fillColor=none;top=0;left=0;bottom=0;right=0;overflow=hidden;" vertex="1" parent="B20BPbvxoQNRa6osuwxp-165">
          <mxGeometry width="90" height="26" as="geometry">
            <mxRectangle width="90" height="26" as="alternateBounds" />
          </mxGeometry>
        </mxCell>
        <mxCell id="B20BPbvxoQNRa6osuwxp-167" value="0.25" style="shape=partialRectangle;html=1;whiteSpace=wrap;connectable=0;fillColor=none;top=0;left=0;bottom=0;right=0;overflow=hidden;" vertex="1" parent="B20BPbvxoQNRa6osuwxp-165">
          <mxGeometry x="90" width="90" height="26" as="geometry">
            <mxRectangle width="90" height="26" as="alternateBounds" />
          </mxGeometry>
        </mxCell>
        <mxCell id="B20BPbvxoQNRa6osuwxp-168" value="" style="shape=tableRow;horizontal=0;startSize=0;swimlaneHead=0;swimlaneBody=0;top=0;left=0;bottom=0;right=0;collapsible=0;dropTarget=0;fillColor=none;points=[[0,0.5],[1,0.5]];portConstraint=eastwest;" vertex="1" parent="B20BPbvxoQNRa6osuwxp-161">
          <mxGeometry y="53" width="180" height="27" as="geometry" />
        </mxCell>
        <mxCell id="B20BPbvxoQNRa6osuwxp-169" value="False" style="shape=partialRectangle;html=1;whiteSpace=wrap;connectable=0;fillColor=none;top=0;left=0;bottom=0;right=0;overflow=hidden;" vertex="1" parent="B20BPbvxoQNRa6osuwxp-168">
          <mxGeometry width="90" height="27" as="geometry">
            <mxRectangle width="90" height="27" as="alternateBounds" />
          </mxGeometry>
        </mxCell>
        <mxCell id="B20BPbvxoQNRa6osuwxp-170" value="0.01" style="shape=partialRectangle;html=1;whiteSpace=wrap;connectable=0;fillColor=none;top=0;left=0;bottom=0;right=0;overflow=hidden;" vertex="1" parent="B20BPbvxoQNRa6osuwxp-168">
          <mxGeometry x="90" width="90" height="27" as="geometry">
            <mxRectangle width="90" height="27" as="alternateBounds" />
          </mxGeometry>
        </mxCell>
        <mxCell id="B20BPbvxoQNRa6osuwxp-171" value="" style="endArrow=none;dashed=1;html=1;dashPattern=1 3;strokeWidth=2;rounded=0;fontSize=12;startSize=8;endSize=8;curved=1;entryX=0;entryY=0.5;entryDx=0;entryDy=0;exitX=1;exitY=0.5;exitDx=0;exitDy=0;" edge="1" parent="1" source="B20BPbvxoQNRa6osuwxp-165" target="B20BPbvxoQNRa6osuwxp-149">
          <mxGeometry width="50" height="50" relative="1" as="geometry">
            <mxPoint x="-560" y="1230" as="sourcePoint" />
            <mxPoint x="-510" y="1180" as="targetPoint" />
          </mxGeometry>
        </mxCell>
        <mxCell id="B20BPbvxoQNRa6osuwxp-172" value="" style="shape=table;html=1;whiteSpace=wrap;startSize=0;container=1;collapsible=0;childLayout=tableLayout;strokeWidth=2;" vertex="1" parent="1">
          <mxGeometry x="-300" y="1230" width="180" height="80" as="geometry" />
        </mxCell>
        <mxCell id="B20BPbvxoQNRa6osuwxp-173" value="" style="shape=tableRow;horizontal=0;startSize=0;swimlaneHead=0;swimlaneBody=0;top=0;left=0;bottom=0;right=0;collapsible=0;dropTarget=0;fillColor=none;points=[[0,0.5],[1,0.5]];portConstraint=eastwest;" vertex="1" parent="B20BPbvxoQNRa6osuwxp-172">
          <mxGeometry width="180" height="27" as="geometry" />
        </mxCell>
        <mxCell id="B20BPbvxoQNRa6osuwxp-174" value="A" style="shape=partialRectangle;html=1;whiteSpace=wrap;connectable=0;fillColor=none;top=0;left=0;bottom=0;right=0;overflow=hidden;fontStyle=1" vertex="1" parent="B20BPbvxoQNRa6osuwxp-173">
          <mxGeometry width="90" height="27" as="geometry">
            <mxRectangle width="90" height="27" as="alternateBounds" />
          </mxGeometry>
        </mxCell>
        <mxCell id="B20BPbvxoQNRa6osuwxp-175" value="P(E)" style="shape=partialRectangle;html=1;whiteSpace=wrap;connectable=0;fillColor=none;top=0;left=0;bottom=0;right=0;overflow=hidden;fontStyle=1" vertex="1" parent="B20BPbvxoQNRa6osuwxp-173">
          <mxGeometry x="90" width="90" height="27" as="geometry">
            <mxRectangle width="90" height="27" as="alternateBounds" />
          </mxGeometry>
        </mxCell>
        <mxCell id="B20BPbvxoQNRa6osuwxp-176" value="" style="shape=tableRow;horizontal=0;startSize=0;swimlaneHead=0;swimlaneBody=0;top=0;left=0;bottom=0;right=0;collapsible=0;dropTarget=0;fillColor=none;points=[[0,0.5],[1,0.5]];portConstraint=eastwest;" vertex="1" parent="B20BPbvxoQNRa6osuwxp-172">
          <mxGeometry y="27" width="180" height="26" as="geometry" />
        </mxCell>
        <mxCell id="B20BPbvxoQNRa6osuwxp-177" value="True" style="shape=partialRectangle;html=1;whiteSpace=wrap;connectable=0;fillColor=none;top=0;left=0;bottom=0;right=0;overflow=hidden;" vertex="1" parent="B20BPbvxoQNRa6osuwxp-176">
          <mxGeometry width="90" height="26" as="geometry">
            <mxRectangle width="90" height="26" as="alternateBounds" />
          </mxGeometry>
        </mxCell>
        <mxCell id="B20BPbvxoQNRa6osuwxp-178" value="0.65" style="shape=partialRectangle;html=1;whiteSpace=wrap;connectable=0;fillColor=none;top=0;left=0;bottom=0;right=0;overflow=hidden;" vertex="1" parent="B20BPbvxoQNRa6osuwxp-176">
          <mxGeometry x="90" width="90" height="26" as="geometry">
            <mxRectangle width="90" height="26" as="alternateBounds" />
          </mxGeometry>
        </mxCell>
        <mxCell id="B20BPbvxoQNRa6osuwxp-179" value="" style="shape=tableRow;horizontal=0;startSize=0;swimlaneHead=0;swimlaneBody=0;top=0;left=0;bottom=0;right=0;collapsible=0;dropTarget=0;fillColor=none;points=[[0,0.5],[1,0.5]];portConstraint=eastwest;" vertex="1" parent="B20BPbvxoQNRa6osuwxp-172">
          <mxGeometry y="53" width="180" height="27" as="geometry" />
        </mxCell>
        <mxCell id="B20BPbvxoQNRa6osuwxp-180" value="False" style="shape=partialRectangle;html=1;whiteSpace=wrap;connectable=0;fillColor=none;top=0;left=0;bottom=0;right=0;overflow=hidden;" vertex="1" parent="B20BPbvxoQNRa6osuwxp-179">
          <mxGeometry width="90" height="27" as="geometry">
            <mxRectangle width="90" height="27" as="alternateBounds" />
          </mxGeometry>
        </mxCell>
        <mxCell id="B20BPbvxoQNRa6osuwxp-181" value="0.15" style="shape=partialRectangle;html=1;whiteSpace=wrap;connectable=0;fillColor=none;top=0;left=0;bottom=0;right=0;overflow=hidden;" vertex="1" parent="B20BPbvxoQNRa6osuwxp-179">
          <mxGeometry x="90" width="90" height="27" as="geometry">
            <mxRectangle width="90" height="27" as="alternateBounds" />
          </mxGeometry>
        </mxCell>
        <mxCell id="B20BPbvxoQNRa6osuwxp-182" value="" style="endArrow=none;dashed=1;html=1;dashPattern=1 3;strokeWidth=2;rounded=0;fontSize=12;startSize=8;endSize=8;curved=1;exitX=1;exitY=0.5;exitDx=0;exitDy=0;entryX=0;entryY=0.5;entryDx=0;entryDy=0;" edge="1" parent="1" source="B20BPbvxoQNRa6osuwxp-150" target="B20BPbvxoQNRa6osuwxp-176">
          <mxGeometry width="50" height="50" relative="1" as="geometry">
            <mxPoint x="-240" y="1180" as="sourcePoint" />
            <mxPoint x="-190" y="1130" as="targetPoint" />
          </mxGeometry>
        </mxCell>
        <mxCell id="B20BPbvxoQNRa6osuwxp-183" value="" style="shape=table;html=1;whiteSpace=wrap;startSize=0;container=1;collapsible=0;childLayout=tableLayout;strokeWidth=2;" vertex="1" parent="1">
          <mxGeometry x="-790" y="1350" width="180" height="80" as="geometry" />
        </mxCell>
        <mxCell id="B20BPbvxoQNRa6osuwxp-184" value="" style="shape=tableRow;horizontal=0;startSize=0;swimlaneHead=0;swimlaneBody=0;top=0;left=0;bottom=0;right=0;collapsible=0;dropTarget=0;fillColor=none;points=[[0,0.5],[1,0.5]];portConstraint=eastwest;" vertex="1" parent="B20BPbvxoQNRa6osuwxp-183">
          <mxGeometry width="180" height="27" as="geometry" />
        </mxCell>
        <mxCell id="B20BPbvxoQNRa6osuwxp-185" value="B" style="shape=partialRectangle;html=1;whiteSpace=wrap;connectable=0;fillColor=none;top=0;left=0;bottom=0;right=0;overflow=hidden;fontStyle=1" vertex="1" parent="B20BPbvxoQNRa6osuwxp-184">
          <mxGeometry width="90" height="27" as="geometry">
            <mxRectangle width="90" height="27" as="alternateBounds" />
          </mxGeometry>
        </mxCell>
        <mxCell id="B20BPbvxoQNRa6osuwxp-186" value="P(C)" style="shape=partialRectangle;html=1;whiteSpace=wrap;connectable=0;fillColor=none;top=0;left=0;bottom=0;right=0;overflow=hidden;fontStyle=1" vertex="1" parent="B20BPbvxoQNRa6osuwxp-184">
          <mxGeometry x="90" width="90" height="27" as="geometry">
            <mxRectangle width="90" height="27" as="alternateBounds" />
          </mxGeometry>
        </mxCell>
        <mxCell id="B20BPbvxoQNRa6osuwxp-187" value="" style="shape=tableRow;horizontal=0;startSize=0;swimlaneHead=0;swimlaneBody=0;top=0;left=0;bottom=0;right=0;collapsible=0;dropTarget=0;fillColor=none;points=[[0,0.5],[1,0.5]];portConstraint=eastwest;" vertex="1" parent="B20BPbvxoQNRa6osuwxp-183">
          <mxGeometry y="27" width="180" height="26" as="geometry" />
        </mxCell>
        <mxCell id="B20BPbvxoQNRa6osuwxp-188" value="True" style="shape=partialRectangle;html=1;whiteSpace=wrap;connectable=0;fillColor=none;top=0;left=0;bottom=0;right=0;overflow=hidden;" vertex="1" parent="B20BPbvxoQNRa6osuwxp-187">
          <mxGeometry width="90" height="26" as="geometry">
            <mxRectangle width="90" height="26" as="alternateBounds" />
          </mxGeometry>
        </mxCell>
        <mxCell id="B20BPbvxoQNRa6osuwxp-189" value="0.75" style="shape=partialRectangle;html=1;whiteSpace=wrap;connectable=0;fillColor=none;top=0;left=0;bottom=0;right=0;overflow=hidden;" vertex="1" parent="B20BPbvxoQNRa6osuwxp-187">
          <mxGeometry x="90" width="90" height="26" as="geometry">
            <mxRectangle width="90" height="26" as="alternateBounds" />
          </mxGeometry>
        </mxCell>
        <mxCell id="B20BPbvxoQNRa6osuwxp-190" value="" style="shape=tableRow;horizontal=0;startSize=0;swimlaneHead=0;swimlaneBody=0;top=0;left=0;bottom=0;right=0;collapsible=0;dropTarget=0;fillColor=none;points=[[0,0.5],[1,0.5]];portConstraint=eastwest;" vertex="1" parent="B20BPbvxoQNRa6osuwxp-183">
          <mxGeometry y="53" width="180" height="27" as="geometry" />
        </mxCell>
        <mxCell id="B20BPbvxoQNRa6osuwxp-191" value="False" style="shape=partialRectangle;html=1;whiteSpace=wrap;connectable=0;fillColor=none;top=0;left=0;bottom=0;right=0;overflow=hidden;" vertex="1" parent="B20BPbvxoQNRa6osuwxp-190">
          <mxGeometry width="90" height="27" as="geometry">
            <mxRectangle width="90" height="27" as="alternateBounds" />
          </mxGeometry>
        </mxCell>
        <mxCell id="B20BPbvxoQNRa6osuwxp-192" value="0.05" style="shape=partialRectangle;html=1;whiteSpace=wrap;connectable=0;fillColor=none;top=0;left=0;bottom=0;right=0;overflow=hidden;" vertex="1" parent="B20BPbvxoQNRa6osuwxp-190">
          <mxGeometry x="90" width="90" height="27" as="geometry">
            <mxRectangle width="90" height="27" as="alternateBounds" />
          </mxGeometry>
        </mxCell>
        <mxCell id="B20BPbvxoQNRa6osuwxp-193" value="" style="endArrow=none;dashed=1;html=1;dashPattern=1 3;strokeWidth=2;rounded=0;fontSize=12;startSize=8;endSize=8;curved=1;entryX=1;entryY=0.5;entryDx=0;entryDy=0;exitX=0;exitY=0.5;exitDx=0;exitDy=0;" edge="1" parent="1" source="B20BPbvxoQNRa6osuwxp-153" target="B20BPbvxoQNRa6osuwxp-187">
          <mxGeometry width="50" height="50" relative="1" as="geometry">
            <mxPoint x="-660" y="1560" as="sourcePoint" />
            <mxPoint x="-610" y="1510" as="targetPoint" />
          </mxGeometry>
        </mxCell>
        <mxCell id="B20BPbvxoQNRa6osuwxp-194" value="" style="shape=table;html=1;whiteSpace=wrap;startSize=0;container=1;collapsible=0;childLayout=tableLayout;strokeWidth=2;" vertex="1" parent="1">
          <mxGeometry x="-690" y="1470" width="180" height="80" as="geometry" />
        </mxCell>
        <mxCell id="B20BPbvxoQNRa6osuwxp-195" value="" style="shape=tableRow;horizontal=0;startSize=0;swimlaneHead=0;swimlaneBody=0;top=0;left=0;bottom=0;right=0;collapsible=0;dropTarget=0;fillColor=none;points=[[0,0.5],[1,0.5]];portConstraint=eastwest;" vertex="1" parent="B20BPbvxoQNRa6osuwxp-194">
          <mxGeometry width="180" height="27" as="geometry" />
        </mxCell>
        <mxCell id="B20BPbvxoQNRa6osuwxp-196" value="B" style="shape=partialRectangle;html=1;whiteSpace=wrap;connectable=0;fillColor=none;top=0;left=0;bottom=0;right=0;overflow=hidden;fontStyle=1" vertex="1" parent="B20BPbvxoQNRa6osuwxp-195">
          <mxGeometry width="90" height="27" as="geometry">
            <mxRectangle width="90" height="27" as="alternateBounds" />
          </mxGeometry>
        </mxCell>
        <mxCell id="B20BPbvxoQNRa6osuwxp-197" value="P(D)" style="shape=partialRectangle;html=1;whiteSpace=wrap;connectable=0;fillColor=none;top=0;left=0;bottom=0;right=0;overflow=hidden;fontStyle=1" vertex="1" parent="B20BPbvxoQNRa6osuwxp-195">
          <mxGeometry x="90" width="90" height="27" as="geometry">
            <mxRectangle width="90" height="27" as="alternateBounds" />
          </mxGeometry>
        </mxCell>
        <mxCell id="B20BPbvxoQNRa6osuwxp-198" value="" style="shape=tableRow;horizontal=0;startSize=0;swimlaneHead=0;swimlaneBody=0;top=0;left=0;bottom=0;right=0;collapsible=0;dropTarget=0;fillColor=none;points=[[0,0.5],[1,0.5]];portConstraint=eastwest;" vertex="1" parent="B20BPbvxoQNRa6osuwxp-194">
          <mxGeometry y="27" width="180" height="26" as="geometry" />
        </mxCell>
        <mxCell id="B20BPbvxoQNRa6osuwxp-199" value="True" style="shape=partialRectangle;html=1;whiteSpace=wrap;connectable=0;fillColor=none;top=0;left=0;bottom=0;right=0;overflow=hidden;" vertex="1" parent="B20BPbvxoQNRa6osuwxp-198">
          <mxGeometry width="90" height="26" as="geometry">
            <mxRectangle width="90" height="26" as="alternateBounds" />
          </mxGeometry>
        </mxCell>
        <mxCell id="B20BPbvxoQNRa6osuwxp-200" value="0.55" style="shape=partialRectangle;html=1;whiteSpace=wrap;connectable=0;fillColor=none;top=0;left=0;bottom=0;right=0;overflow=hidden;" vertex="1" parent="B20BPbvxoQNRa6osuwxp-198">
          <mxGeometry x="90" width="90" height="26" as="geometry">
            <mxRectangle width="90" height="26" as="alternateBounds" />
          </mxGeometry>
        </mxCell>
        <mxCell id="B20BPbvxoQNRa6osuwxp-201" value="" style="shape=tableRow;horizontal=0;startSize=0;swimlaneHead=0;swimlaneBody=0;top=0;left=0;bottom=0;right=0;collapsible=0;dropTarget=0;fillColor=none;points=[[0,0.5],[1,0.5]];portConstraint=eastwest;" vertex="1" parent="B20BPbvxoQNRa6osuwxp-194">
          <mxGeometry y="53" width="180" height="27" as="geometry" />
        </mxCell>
        <mxCell id="B20BPbvxoQNRa6osuwxp-202" value="False" style="shape=partialRectangle;html=1;whiteSpace=wrap;connectable=0;fillColor=none;top=0;left=0;bottom=0;right=0;overflow=hidden;" vertex="1" parent="B20BPbvxoQNRa6osuwxp-201">
          <mxGeometry width="90" height="27" as="geometry">
            <mxRectangle width="90" height="27" as="alternateBounds" />
          </mxGeometry>
        </mxCell>
        <mxCell id="B20BPbvxoQNRa6osuwxp-203" value="0.15" style="shape=partialRectangle;html=1;whiteSpace=wrap;connectable=0;fillColor=none;top=0;left=0;bottom=0;right=0;overflow=hidden;" vertex="1" parent="B20BPbvxoQNRa6osuwxp-201">
          <mxGeometry x="90" width="90" height="27" as="geometry">
            <mxRectangle width="90" height="27" as="alternateBounds" />
          </mxGeometry>
        </mxCell>
        <mxCell id="B20BPbvxoQNRa6osuwxp-204" value="" style="endArrow=none;dashed=1;html=1;dashPattern=1 3;strokeWidth=2;rounded=0;fontSize=12;startSize=8;endSize=8;curved=1;exitX=1;exitY=0.5;exitDx=0;exitDy=0;entryX=0.5;entryY=1;entryDx=0;entryDy=0;" edge="1" parent="1" source="B20BPbvxoQNRa6osuwxp-198" target="B20BPbvxoQNRa6osuwxp-154">
          <mxGeometry width="50" height="50" relative="1" as="geometry">
            <mxPoint x="-500" y="1660" as="sourcePoint" />
            <mxPoint x="-529.9999999999957" y="1510" as="targetPoint" />
            <Array as="points">
              <mxPoint x="-490" y="1510" />
              <mxPoint x="-440" y="1510" />
              <mxPoint x="-440" y="1480" />
            </Array>
          </mxGeometry>
        </mxCell>
        <mxCell id="B20BPbvxoQNRa6osuwxp-205" value="" style="shape=table;html=1;whiteSpace=wrap;startSize=0;container=1;collapsible=0;childLayout=tableLayout;strokeWidth=2;" vertex="1" parent="1">
          <mxGeometry x="-270" y="1350" width="180" height="80" as="geometry" />
        </mxCell>
        <mxCell id="B20BPbvxoQNRa6osuwxp-206" value="" style="shape=tableRow;horizontal=0;startSize=0;swimlaneHead=0;swimlaneBody=0;top=0;left=0;bottom=0;right=0;collapsible=0;dropTarget=0;fillColor=none;points=[[0,0.5],[1,0.5]];portConstraint=eastwest;" vertex="1" parent="B20BPbvxoQNRa6osuwxp-205">
          <mxGeometry width="180" height="27" as="geometry" />
        </mxCell>
        <mxCell id="B20BPbvxoQNRa6osuwxp-207" value="C" style="shape=partialRectangle;html=1;whiteSpace=wrap;connectable=0;fillColor=none;top=0;left=0;bottom=0;right=0;overflow=hidden;fontStyle=1" vertex="1" parent="B20BPbvxoQNRa6osuwxp-206">
          <mxGeometry width="90" height="27" as="geometry">
            <mxRectangle width="90" height="27" as="alternateBounds" />
          </mxGeometry>
        </mxCell>
        <mxCell id="B20BPbvxoQNRa6osuwxp-208" value="P(F)" style="shape=partialRectangle;html=1;whiteSpace=wrap;connectable=0;fillColor=none;top=0;left=0;bottom=0;right=0;overflow=hidden;fontStyle=1" vertex="1" parent="B20BPbvxoQNRa6osuwxp-206">
          <mxGeometry x="90" width="90" height="27" as="geometry">
            <mxRectangle width="90" height="27" as="alternateBounds" />
          </mxGeometry>
        </mxCell>
        <mxCell id="B20BPbvxoQNRa6osuwxp-209" value="" style="shape=tableRow;horizontal=0;startSize=0;swimlaneHead=0;swimlaneBody=0;top=0;left=0;bottom=0;right=0;collapsible=0;dropTarget=0;fillColor=none;points=[[0,0.5],[1,0.5]];portConstraint=eastwest;" vertex="1" parent="B20BPbvxoQNRa6osuwxp-205">
          <mxGeometry y="27" width="180" height="26" as="geometry" />
        </mxCell>
        <mxCell id="B20BPbvxoQNRa6osuwxp-210" value="True" style="shape=partialRectangle;html=1;whiteSpace=wrap;connectable=0;fillColor=none;top=0;left=0;bottom=0;right=0;overflow=hidden;" vertex="1" parent="B20BPbvxoQNRa6osuwxp-209">
          <mxGeometry width="90" height="26" as="geometry">
            <mxRectangle width="90" height="26" as="alternateBounds" />
          </mxGeometry>
        </mxCell>
        <mxCell id="B20BPbvxoQNRa6osuwxp-211" value="0.45" style="shape=partialRectangle;html=1;whiteSpace=wrap;connectable=0;fillColor=none;top=0;left=0;bottom=0;right=0;overflow=hidden;" vertex="1" parent="B20BPbvxoQNRa6osuwxp-209">
          <mxGeometry x="90" width="90" height="26" as="geometry">
            <mxRectangle width="90" height="26" as="alternateBounds" />
          </mxGeometry>
        </mxCell>
        <mxCell id="B20BPbvxoQNRa6osuwxp-212" value="" style="shape=tableRow;horizontal=0;startSize=0;swimlaneHead=0;swimlaneBody=0;top=0;left=0;bottom=0;right=0;collapsible=0;dropTarget=0;fillColor=none;points=[[0,0.5],[1,0.5]];portConstraint=eastwest;" vertex="1" parent="B20BPbvxoQNRa6osuwxp-205">
          <mxGeometry y="53" width="180" height="27" as="geometry" />
        </mxCell>
        <mxCell id="B20BPbvxoQNRa6osuwxp-213" value="False" style="shape=partialRectangle;html=1;whiteSpace=wrap;connectable=0;fillColor=none;top=0;left=0;bottom=0;right=0;overflow=hidden;" vertex="1" parent="B20BPbvxoQNRa6osuwxp-212">
          <mxGeometry width="90" height="27" as="geometry">
            <mxRectangle width="90" height="27" as="alternateBounds" />
          </mxGeometry>
        </mxCell>
        <mxCell id="B20BPbvxoQNRa6osuwxp-214" value="0.05" style="shape=partialRectangle;html=1;whiteSpace=wrap;connectable=0;fillColor=none;top=0;left=0;bottom=0;right=0;overflow=hidden;" vertex="1" parent="B20BPbvxoQNRa6osuwxp-212">
          <mxGeometry x="90" width="90" height="27" as="geometry">
            <mxRectangle width="90" height="27" as="alternateBounds" />
          </mxGeometry>
        </mxCell>
        <mxCell id="B20BPbvxoQNRa6osuwxp-215" value="" style="endArrow=none;dashed=1;html=1;dashPattern=1 3;strokeWidth=2;rounded=0;fontSize=12;startSize=8;endSize=8;curved=1;exitX=1;exitY=0.5;exitDx=0;exitDy=0;entryX=0;entryY=0.5;entryDx=0;entryDy=0;" edge="1" parent="1" source="B20BPbvxoQNRa6osuwxp-157" target="B20BPbvxoQNRa6osuwxp-205">
          <mxGeometry width="50" height="50" relative="1" as="geometry">
            <mxPoint x="-240" y="1370" as="sourcePoint" />
            <mxPoint x="-190" y="1320" as="targetPoint" />
          </mxGeometry>
        </mxCell>
        <mxCell id="B20BPbvxoQNRa6osuwxp-216" value="" style="shape=table;html=1;whiteSpace=wrap;startSize=0;container=1;collapsible=0;childLayout=tableLayout;strokeWidth=2;" vertex="1" parent="1">
          <mxGeometry x="-270" y="1460" width="180" height="80" as="geometry" />
        </mxCell>
        <mxCell id="B20BPbvxoQNRa6osuwxp-217" value="" style="shape=tableRow;horizontal=0;startSize=0;swimlaneHead=0;swimlaneBody=0;top=0;left=0;bottom=0;right=0;collapsible=0;dropTarget=0;fillColor=none;points=[[0,0.5],[1,0.5]];portConstraint=eastwest;" vertex="1" parent="B20BPbvxoQNRa6osuwxp-216">
          <mxGeometry width="180" height="27" as="geometry" />
        </mxCell>
        <mxCell id="B20BPbvxoQNRa6osuwxp-218" value="F" style="shape=partialRectangle;html=1;whiteSpace=wrap;connectable=0;fillColor=none;top=0;left=0;bottom=0;right=0;overflow=hidden;fontStyle=1" vertex="1" parent="B20BPbvxoQNRa6osuwxp-217">
          <mxGeometry width="90" height="27" as="geometry">
            <mxRectangle width="90" height="27" as="alternateBounds" />
          </mxGeometry>
        </mxCell>
        <mxCell id="B20BPbvxoQNRa6osuwxp-219" value="P(G)" style="shape=partialRectangle;html=1;whiteSpace=wrap;connectable=0;fillColor=none;top=0;left=0;bottom=0;right=0;overflow=hidden;fontStyle=1" vertex="1" parent="B20BPbvxoQNRa6osuwxp-217">
          <mxGeometry x="90" width="90" height="27" as="geometry">
            <mxRectangle width="90" height="27" as="alternateBounds" />
          </mxGeometry>
        </mxCell>
        <mxCell id="B20BPbvxoQNRa6osuwxp-220" value="" style="shape=tableRow;horizontal=0;startSize=0;swimlaneHead=0;swimlaneBody=0;top=0;left=0;bottom=0;right=0;collapsible=0;dropTarget=0;fillColor=none;points=[[0,0.5],[1,0.5]];portConstraint=eastwest;" vertex="1" parent="B20BPbvxoQNRa6osuwxp-216">
          <mxGeometry y="27" width="180" height="26" as="geometry" />
        </mxCell>
        <mxCell id="B20BPbvxoQNRa6osuwxp-221" value="True" style="shape=partialRectangle;html=1;whiteSpace=wrap;connectable=0;fillColor=none;top=0;left=0;bottom=0;right=0;overflow=hidden;" vertex="1" parent="B20BPbvxoQNRa6osuwxp-220">
          <mxGeometry width="90" height="26" as="geometry">
            <mxRectangle width="90" height="26" as="alternateBounds" />
          </mxGeometry>
        </mxCell>
        <mxCell id="B20BPbvxoQNRa6osuwxp-222" value="0.85" style="shape=partialRectangle;html=1;whiteSpace=wrap;connectable=0;fillColor=none;top=0;left=0;bottom=0;right=0;overflow=hidden;" vertex="1" parent="B20BPbvxoQNRa6osuwxp-220">
          <mxGeometry x="90" width="90" height="26" as="geometry">
            <mxRectangle width="90" height="26" as="alternateBounds" />
          </mxGeometry>
        </mxCell>
        <mxCell id="B20BPbvxoQNRa6osuwxp-223" value="" style="shape=tableRow;horizontal=0;startSize=0;swimlaneHead=0;swimlaneBody=0;top=0;left=0;bottom=0;right=0;collapsible=0;dropTarget=0;fillColor=none;points=[[0,0.5],[1,0.5]];portConstraint=eastwest;" vertex="1" parent="B20BPbvxoQNRa6osuwxp-216">
          <mxGeometry y="53" width="180" height="27" as="geometry" />
        </mxCell>
        <mxCell id="B20BPbvxoQNRa6osuwxp-224" value="False" style="shape=partialRectangle;html=1;whiteSpace=wrap;connectable=0;fillColor=none;top=0;left=0;bottom=0;right=0;overflow=hidden;" vertex="1" parent="B20BPbvxoQNRa6osuwxp-223">
          <mxGeometry width="90" height="27" as="geometry">
            <mxRectangle width="90" height="27" as="alternateBounds" />
          </mxGeometry>
        </mxCell>
        <mxCell id="B20BPbvxoQNRa6osuwxp-225" value="0.25" style="shape=partialRectangle;html=1;whiteSpace=wrap;connectable=0;fillColor=none;top=0;left=0;bottom=0;right=0;overflow=hidden;" vertex="1" parent="B20BPbvxoQNRa6osuwxp-223">
          <mxGeometry x="90" width="90" height="27" as="geometry">
            <mxRectangle width="90" height="27" as="alternateBounds" />
          </mxGeometry>
        </mxCell>
        <mxCell id="B20BPbvxoQNRa6osuwxp-226" value="" style="endArrow=none;dashed=1;html=1;dashPattern=1 3;strokeWidth=2;rounded=0;fontSize=12;startSize=8;endSize=8;curved=1;entryX=1;entryY=0.5;entryDx=0;entryDy=0;exitX=0;exitY=0.5;exitDx=0;exitDy=0;" edge="1" parent="1" source="B20BPbvxoQNRa6osuwxp-216" target="B20BPbvxoQNRa6osuwxp-159">
          <mxGeometry width="50" height="50" relative="1" as="geometry">
            <mxPoint x="-440" y="1660" as="sourcePoint" />
            <mxPoint x="-390" y="1610" as="targetPoint" />
          </mxGeometry>
        </mxCell>
        <mxCell id="B20BPbvxoQNRa6osuwxp-227" value="" style="endArrow=none;dashed=1;html=1;dashPattern=1 3;strokeWidth=2;rounded=0;fontSize=12;startSize=8;endSize=8;curved=1;entryX=0;entryY=0.5;entryDx=0;entryDy=0;exitX=1;exitY=0.5;exitDx=0;exitDy=0;" edge="1" parent="1" source="B20BPbvxoQNRa6osuwxp-228" target="B20BPbvxoQNRa6osuwxp-148">
          <mxGeometry width="50" height="50" relative="1" as="geometry">
            <mxPoint x="-520" y="1140" as="sourcePoint" />
            <mxPoint x="-500" y="1130" as="targetPoint" />
          </mxGeometry>
        </mxCell>
        <mxCell id="B20BPbvxoQNRa6osuwxp-228" value="P(A)" style="swimlane;" vertex="1" parent="1">
          <mxGeometry x="-600" y="1112.5" width="80" height="55" as="geometry" />
        </mxCell>
        <mxCell id="B20BPbvxoQNRa6osuwxp-229" value="0.4" style="text;html=1;align=center;verticalAlign=middle;resizable=0;points=[];autosize=1;strokeColor=none;fillColor=none;fontSize=16;" vertex="1" parent="B20BPbvxoQNRa6osuwxp-228">
          <mxGeometry x="15" y="25" width="50" height="30" as="geometry" />
        </mxCell>
        <mxCell id="B20BPbvxoQNRa6osuwxp-245" style="rounded=0;orthogonalLoop=1;jettySize=auto;html=1;exitX=0;exitY=1;exitDx=0;exitDy=0;entryX=0.7;entryY=0.056;entryDx=0;entryDy=0;entryPerimeter=0;" edge="1" parent="1" source="B20BPbvxoQNRa6osuwxp-230" target="B20BPbvxoQNRa6osuwxp-237">
          <mxGeometry relative="1" as="geometry" />
        </mxCell>
        <mxCell id="B20BPbvxoQNRa6osuwxp-348" value="0.1" style="edgeLabel;html=1;align=center;verticalAlign=middle;resizable=0;points=[];" vertex="1" connectable="0" parent="B20BPbvxoQNRa6osuwxp-245">
          <mxGeometry x="-0.8639" y="-1" relative="1" as="geometry">
            <mxPoint as="offset" />
          </mxGeometry>
        </mxCell>
        <mxCell id="B20BPbvxoQNRa6osuwxp-259" style="edgeStyle=orthogonalEdgeStyle;rounded=0;orthogonalLoop=1;jettySize=auto;html=1;exitX=0;exitY=0.5;exitDx=0;exitDy=0;entryX=1;entryY=0.5;entryDx=0;entryDy=0;" edge="1" parent="1" source="B20BPbvxoQNRa6osuwxp-230" target="B20BPbvxoQNRa6osuwxp-231">
          <mxGeometry relative="1" as="geometry" />
        </mxCell>
        <mxCell id="B20BPbvxoQNRa6osuwxp-346" value="0.4" style="edgeLabel;html=1;align=center;verticalAlign=middle;resizable=0;points=[];" vertex="1" connectable="0" parent="B20BPbvxoQNRa6osuwxp-259">
          <mxGeometry x="0.1022" y="-3" relative="1" as="geometry">
            <mxPoint y="3" as="offset" />
          </mxGeometry>
        </mxCell>
        <mxCell id="B20BPbvxoQNRa6osuwxp-260" style="rounded=0;orthogonalLoop=1;jettySize=auto;html=1;exitX=1;exitY=0.5;exitDx=0;exitDy=0;entryX=0.5;entryY=0;entryDx=0;entryDy=0;" edge="1" parent="1" source="B20BPbvxoQNRa6osuwxp-230" target="B20BPbvxoQNRa6osuwxp-232">
          <mxGeometry relative="1" as="geometry" />
        </mxCell>
        <mxCell id="B20BPbvxoQNRa6osuwxp-344" value="0.2" style="edgeLabel;html=1;align=center;verticalAlign=middle;resizable=0;points=[];" vertex="1" connectable="0" parent="B20BPbvxoQNRa6osuwxp-260">
          <mxGeometry x="-0.1881" y="5" relative="1" as="geometry">
            <mxPoint y="1" as="offset" />
          </mxGeometry>
        </mxCell>
        <mxCell id="B20BPbvxoQNRa6osuwxp-328" style="rounded=0;orthogonalLoop=1;jettySize=auto;html=1;exitX=0.625;exitY=0.975;exitDx=0;exitDy=0;entryX=0.625;entryY=0;entryDx=0;entryDy=0;entryPerimeter=0;exitPerimeter=0;" edge="1" parent="1" source="B20BPbvxoQNRa6osuwxp-230" target="B20BPbvxoQNRa6osuwxp-236">
          <mxGeometry relative="1" as="geometry">
            <mxPoint x="-1289.9957287525378" y="1186.2842712474621" as="sourcePoint" />
            <mxPoint x="-1289.9957287525378" y="1941.7157287525379" as="targetPoint" />
          </mxGeometry>
        </mxCell>
        <mxCell id="B20BPbvxoQNRa6osuwxp-349" value="0.1" style="edgeLabel;html=1;align=center;verticalAlign=middle;resizable=0;points=[];" vertex="1" connectable="0" parent="B20BPbvxoQNRa6osuwxp-328">
          <mxGeometry x="-0.8556" y="5" relative="1" as="geometry">
            <mxPoint x="-3" y="8" as="offset" />
          </mxGeometry>
        </mxCell>
        <mxCell id="B20BPbvxoQNRa6osuwxp-230" value="Nugas" style="ellipse;whiteSpace=wrap;html=1;aspect=fixed;" vertex="1" parent="1">
          <mxGeometry x="-1340" y="1118" width="80" height="80" as="geometry" />
        </mxCell>
        <mxCell id="B20BPbvxoQNRa6osuwxp-244" style="rounded=0;orthogonalLoop=1;jettySize=auto;html=1;exitX=0.5;exitY=1;exitDx=0;exitDy=0;entryX=0.6;entryY=0.013;entryDx=0;entryDy=0;entryPerimeter=0;" edge="1" parent="1" source="B20BPbvxoQNRa6osuwxp-231" target="B20BPbvxoQNRa6osuwxp-237">
          <mxGeometry relative="1" as="geometry" />
        </mxCell>
        <mxCell id="B20BPbvxoQNRa6osuwxp-354" value="0.1" style="edgeLabel;html=1;align=center;verticalAlign=middle;resizable=0;points=[];" vertex="1" connectable="0" parent="B20BPbvxoQNRa6osuwxp-244">
          <mxGeometry x="-0.8731" y="-1" relative="1" as="geometry">
            <mxPoint x="3" as="offset" />
          </mxGeometry>
        </mxCell>
        <mxCell id="B20BPbvxoQNRa6osuwxp-257" style="rounded=0;orthogonalLoop=1;jettySize=auto;html=1;exitX=0.05;exitY=0.794;exitDx=0;exitDy=0;entryX=0.713;entryY=0.063;entryDx=0;entryDy=0;entryPerimeter=0;exitPerimeter=0;" edge="1" parent="1" source="B20BPbvxoQNRa6osuwxp-231" target="B20BPbvxoQNRa6osuwxp-233">
          <mxGeometry relative="1" as="geometry" />
        </mxCell>
        <mxCell id="B20BPbvxoQNRa6osuwxp-353" value="0.3" style="edgeLabel;html=1;align=center;verticalAlign=middle;resizable=0;points=[];" vertex="1" connectable="0" parent="B20BPbvxoQNRa6osuwxp-257">
          <mxGeometry x="-0.6244" y="2" relative="1" as="geometry">
            <mxPoint as="offset" />
          </mxGeometry>
        </mxCell>
        <mxCell id="B20BPbvxoQNRa6osuwxp-258" style="rounded=0;orthogonalLoop=1;jettySize=auto;html=1;exitX=1;exitY=0;exitDx=0;exitDy=0;entryX=0;entryY=0;entryDx=0;entryDy=0;" edge="1" parent="1" source="B20BPbvxoQNRa6osuwxp-231" target="B20BPbvxoQNRa6osuwxp-230">
          <mxGeometry relative="1" as="geometry" />
        </mxCell>
        <mxCell id="B20BPbvxoQNRa6osuwxp-351" value="0.2" style="edgeLabel;html=1;align=center;verticalAlign=middle;resizable=0;points=[];" vertex="1" connectable="0" parent="B20BPbvxoQNRa6osuwxp-258">
          <mxGeometry x="-0.2536" y="1" relative="1" as="geometry">
            <mxPoint as="offset" />
          </mxGeometry>
        </mxCell>
        <mxCell id="B20BPbvxoQNRa6osuwxp-320" style="rounded=0;orthogonalLoop=1;jettySize=auto;html=1;exitX=0.763;exitY=0.919;exitDx=0;exitDy=0;exitPerimeter=0;entryX=0.275;entryY=0.063;entryDx=0;entryDy=0;entryPerimeter=0;" edge="1" parent="1" source="B20BPbvxoQNRa6osuwxp-231" target="B20BPbvxoQNRa6osuwxp-236">
          <mxGeometry relative="1" as="geometry">
            <mxPoint x="-1328" y="1942" as="targetPoint" />
          </mxGeometry>
        </mxCell>
        <mxCell id="B20BPbvxoQNRa6osuwxp-355" value="0.0" style="edgeLabel;html=1;align=center;verticalAlign=middle;resizable=0;points=[];" vertex="1" connectable="0" parent="B20BPbvxoQNRa6osuwxp-320">
          <mxGeometry x="-0.8837" y="3" relative="1" as="geometry">
            <mxPoint x="1" y="-1" as="offset" />
          </mxGeometry>
        </mxCell>
        <mxCell id="B20BPbvxoQNRa6osuwxp-231" value="TV" style="ellipse;whiteSpace=wrap;html=1;aspect=fixed;" vertex="1" parent="1">
          <mxGeometry x="-1620" y="1118.5" width="80" height="80" as="geometry" />
        </mxCell>
        <mxCell id="B20BPbvxoQNRa6osuwxp-261" style="rounded=0;orthogonalLoop=1;jettySize=auto;html=1;exitX=0.25;exitY=0.025;exitDx=0;exitDy=0;entryX=0.938;entryY=0.763;entryDx=0;entryDy=0;exitPerimeter=0;entryPerimeter=0;" edge="1" parent="1" source="B20BPbvxoQNRa6osuwxp-232" target="B20BPbvxoQNRa6osuwxp-230">
          <mxGeometry relative="1" as="geometry" />
        </mxCell>
        <mxCell id="B20BPbvxoQNRa6osuwxp-339" value="0.3" style="edgeLabel;html=1;align=center;verticalAlign=middle;resizable=0;points=[];" vertex="1" connectable="0" parent="B20BPbvxoQNRa6osuwxp-261">
          <mxGeometry x="-0.3863" y="1" relative="1" as="geometry">
            <mxPoint as="offset" />
          </mxGeometry>
        </mxCell>
        <mxCell id="B20BPbvxoQNRa6osuwxp-264" style="rounded=0;orthogonalLoop=1;jettySize=auto;html=1;exitX=0.5;exitY=1;exitDx=0;exitDy=0;entryX=1;entryY=0.369;entryDx=0;entryDy=0;entryPerimeter=0;" edge="1" parent="1" source="B20BPbvxoQNRa6osuwxp-232" target="B20BPbvxoQNRa6osuwxp-236">
          <mxGeometry relative="1" as="geometry" />
        </mxCell>
        <mxCell id="B20BPbvxoQNRa6osuwxp-343" value="0.0" style="edgeLabel;html=1;align=center;verticalAlign=middle;resizable=0;points=[];" vertex="1" connectable="0" parent="B20BPbvxoQNRa6osuwxp-264">
          <mxGeometry x="-0.463" y="2" relative="1" as="geometry">
            <mxPoint as="offset" />
          </mxGeometry>
        </mxCell>
        <mxCell id="B20BPbvxoQNRa6osuwxp-310" style="rounded=0;orthogonalLoop=1;jettySize=auto;html=1;exitX=0.05;exitY=0.663;exitDx=0;exitDy=0;entryX=0.988;entryY=0.65;entryDx=0;entryDy=0;entryPerimeter=0;exitPerimeter=0;" edge="1" parent="1" source="B20BPbvxoQNRa6osuwxp-232" target="B20BPbvxoQNRa6osuwxp-233">
          <mxGeometry relative="1" as="geometry" />
        </mxCell>
        <mxCell id="B20BPbvxoQNRa6osuwxp-341" value="0.2" style="edgeLabel;html=1;align=center;verticalAlign=middle;resizable=0;points=[];" vertex="1" connectable="0" parent="B20BPbvxoQNRa6osuwxp-310">
          <mxGeometry x="-0.7202" y="-1" relative="1" as="geometry">
            <mxPoint as="offset" />
          </mxGeometry>
        </mxCell>
        <mxCell id="B20BPbvxoQNRa6osuwxp-232" value="Musik" style="ellipse;whiteSpace=wrap;html=1;aspect=fixed;" vertex="1" parent="1">
          <mxGeometry x="-1100" y="1460" width="100" height="100" as="geometry" />
        </mxCell>
        <mxCell id="B20BPbvxoQNRa6osuwxp-249" style="rounded=0;orthogonalLoop=1;jettySize=auto;html=1;exitX=0.5;exitY=1;exitDx=0;exitDy=0;entryX=0;entryY=0.5;entryDx=0;entryDy=0;" edge="1" parent="1" source="B20BPbvxoQNRa6osuwxp-233" target="B20BPbvxoQNRa6osuwxp-237">
          <mxGeometry relative="1" as="geometry" />
        </mxCell>
        <mxCell id="B20BPbvxoQNRa6osuwxp-360" value="0.1" style="edgeLabel;html=1;align=center;verticalAlign=middle;resizable=0;points=[];" vertex="1" connectable="0" parent="B20BPbvxoQNRa6osuwxp-249">
          <mxGeometry x="-0.6732" y="-1" relative="1" as="geometry">
            <mxPoint as="offset" />
          </mxGeometry>
        </mxCell>
        <mxCell id="B20BPbvxoQNRa6osuwxp-253" style="rounded=0;orthogonalLoop=1;jettySize=auto;html=1;exitX=1;exitY=0.5;exitDx=0;exitDy=0;entryX=0;entryY=0.5;entryDx=0;entryDy=0;" edge="1" parent="1" source="B20BPbvxoQNRa6osuwxp-233" target="B20BPbvxoQNRa6osuwxp-232">
          <mxGeometry relative="1" as="geometry" />
        </mxCell>
        <mxCell id="B20BPbvxoQNRa6osuwxp-356" value="0.1" style="edgeLabel;html=1;align=center;verticalAlign=middle;resizable=0;points=[];" vertex="1" connectable="0" parent="B20BPbvxoQNRa6osuwxp-253">
          <mxGeometry x="-0.7721" y="2" relative="1" as="geometry">
            <mxPoint as="offset" />
          </mxGeometry>
        </mxCell>
        <mxCell id="B20BPbvxoQNRa6osuwxp-256" style="rounded=0;orthogonalLoop=1;jettySize=auto;html=1;exitX=0.5;exitY=0;exitDx=0;exitDy=0;entryX=0;entryY=0.5;entryDx=0;entryDy=0;" edge="1" parent="1" source="B20BPbvxoQNRa6osuwxp-233" target="B20BPbvxoQNRa6osuwxp-231">
          <mxGeometry relative="1" as="geometry" />
        </mxCell>
        <mxCell id="B20BPbvxoQNRa6osuwxp-358" value="0.4" style="edgeLabel;html=1;align=center;verticalAlign=middle;resizable=0;points=[];" vertex="1" connectable="0" parent="B20BPbvxoQNRa6osuwxp-256">
          <mxGeometry x="-0.5582" y="1" relative="1" as="geometry">
            <mxPoint as="offset" />
          </mxGeometry>
        </mxCell>
        <mxCell id="B20BPbvxoQNRa6osuwxp-233" value="Game" style="ellipse;whiteSpace=wrap;html=1;aspect=fixed;" vertex="1" parent="1">
          <mxGeometry x="-1890" y="1450" width="110" height="110" as="geometry" />
        </mxCell>
        <mxCell id="B20BPbvxoQNRa6osuwxp-247" style="edgeStyle=orthogonalEdgeStyle;rounded=0;orthogonalLoop=1;jettySize=auto;html=1;exitX=0;exitY=0.5;exitDx=0;exitDy=0;entryX=1;entryY=0.5;entryDx=0;entryDy=0;" edge="1" parent="1" source="B20BPbvxoQNRa6osuwxp-236" target="B20BPbvxoQNRa6osuwxp-237">
          <mxGeometry relative="1" as="geometry" />
        </mxCell>
        <mxCell id="B20BPbvxoQNRa6osuwxp-372" value="0.2" style="edgeLabel;html=1;align=center;verticalAlign=middle;resizable=0;points=[];" vertex="1" connectable="0" parent="B20BPbvxoQNRa6osuwxp-247">
          <mxGeometry x="-0.275" relative="1" as="geometry">
            <mxPoint as="offset" />
          </mxGeometry>
        </mxCell>
        <mxCell id="B20BPbvxoQNRa6osuwxp-265" style="rounded=0;orthogonalLoop=1;jettySize=auto;html=1;exitX=1;exitY=0;exitDx=0;exitDy=0;entryX=0.263;entryY=0.95;entryDx=0;entryDy=0;entryPerimeter=0;" edge="1" parent="1" source="B20BPbvxoQNRa6osuwxp-236" target="B20BPbvxoQNRa6osuwxp-232">
          <mxGeometry relative="1" as="geometry" />
        </mxCell>
        <mxCell id="B20BPbvxoQNRa6osuwxp-368" value="0.2" style="edgeLabel;html=1;align=center;verticalAlign=middle;resizable=0;points=[];" vertex="1" connectable="0" parent="B20BPbvxoQNRa6osuwxp-265">
          <mxGeometry x="-0.5605" relative="1" as="geometry">
            <mxPoint as="offset" />
          </mxGeometry>
        </mxCell>
        <mxCell id="B20BPbvxoQNRa6osuwxp-266" style="edgeStyle=orthogonalEdgeStyle;rounded=0;orthogonalLoop=1;jettySize=auto;html=1;exitX=0.5;exitY=0;exitDx=0;exitDy=0;entryX=0.5;entryY=1;entryDx=0;entryDy=0;" edge="1" parent="1" source="B20BPbvxoQNRa6osuwxp-236" target="B20BPbvxoQNRa6osuwxp-230">
          <mxGeometry relative="1" as="geometry" />
        </mxCell>
        <mxCell id="B20BPbvxoQNRa6osuwxp-369" value="0.2" style="edgeLabel;html=1;align=center;verticalAlign=middle;resizable=0;points=[];" vertex="1" connectable="0" parent="B20BPbvxoQNRa6osuwxp-266">
          <mxGeometry x="-0.8884" y="2" relative="1" as="geometry">
            <mxPoint x="-1" as="offset" />
          </mxGeometry>
        </mxCell>
        <mxCell id="B20BPbvxoQNRa6osuwxp-326" style="rounded=0;orthogonalLoop=1;jettySize=auto;html=1;exitX=0;exitY=0.375;exitDx=0;exitDy=0;entryX=0.782;entryY=0.936;entryDx=0;entryDy=0;exitPerimeter=0;entryPerimeter=0;" edge="1" parent="1" source="B20BPbvxoQNRa6osuwxp-236" target="B20BPbvxoQNRa6osuwxp-233">
          <mxGeometry relative="1" as="geometry" />
        </mxCell>
        <mxCell id="B20BPbvxoQNRa6osuwxp-371" value="0.2" style="edgeLabel;html=1;align=center;verticalAlign=middle;resizable=0;points=[];" vertex="1" connectable="0" parent="B20BPbvxoQNRa6osuwxp-326">
          <mxGeometry x="-0.764" y="3" relative="1" as="geometry">
            <mxPoint x="-4" as="offset" />
          </mxGeometry>
        </mxCell>
        <mxCell id="B20BPbvxoQNRa6osuwxp-236" value="Jajan" style="ellipse;whiteSpace=wrap;html=1;aspect=fixed;" vertex="1" parent="1">
          <mxGeometry x="-1340" y="1930" width="80" height="80" as="geometry" />
        </mxCell>
        <mxCell id="B20BPbvxoQNRa6osuwxp-254" style="rounded=0;orthogonalLoop=1;jettySize=auto;html=1;exitX=0.975;exitY=0.731;exitDx=0;exitDy=0;entryX=0.075;entryY=0.756;entryDx=0;entryDy=0;exitPerimeter=0;entryPerimeter=0;" edge="1" parent="1" source="B20BPbvxoQNRa6osuwxp-237" target="B20BPbvxoQNRa6osuwxp-236">
          <mxGeometry relative="1" as="geometry" />
        </mxCell>
        <mxCell id="B20BPbvxoQNRa6osuwxp-367" value="0.2" style="edgeLabel;html=1;align=center;verticalAlign=middle;resizable=0;points=[];" vertex="1" connectable="0" parent="B20BPbvxoQNRa6osuwxp-254">
          <mxGeometry x="-0.0836" y="3" relative="1" as="geometry">
            <mxPoint y="2" as="offset" />
          </mxGeometry>
        </mxCell>
        <mxCell id="B20BPbvxoQNRa6osuwxp-255" style="rounded=0;orthogonalLoop=1;jettySize=auto;html=1;exitX=0;exitY=0;exitDx=0;exitDy=0;entryX=0.65;entryY=0.963;entryDx=0;entryDy=0;entryPerimeter=0;" edge="1" parent="1" source="B20BPbvxoQNRa6osuwxp-237" target="B20BPbvxoQNRa6osuwxp-233">
          <mxGeometry relative="1" as="geometry" />
        </mxCell>
        <mxCell id="B20BPbvxoQNRa6osuwxp-365" value="0.2" style="edgeLabel;html=1;align=center;verticalAlign=middle;resizable=0;points=[];" vertex="1" connectable="0" parent="B20BPbvxoQNRa6osuwxp-255">
          <mxGeometry x="-0.4593" y="4" relative="1" as="geometry">
            <mxPoint x="4" as="offset" />
          </mxGeometry>
        </mxCell>
        <mxCell id="B20BPbvxoQNRa6osuwxp-323" style="rounded=0;orthogonalLoop=1;jettySize=auto;html=1;exitX=0.425;exitY=0;exitDx=0;exitDy=0;entryX=0.5;entryY=1;entryDx=0;entryDy=0;exitPerimeter=0;" edge="1" parent="1" source="B20BPbvxoQNRa6osuwxp-237">
          <mxGeometry relative="1" as="geometry">
            <mxPoint x="-1590" y="1930" as="sourcePoint" />
            <mxPoint x="-1590" y="1198.5" as="targetPoint" />
          </mxGeometry>
        </mxCell>
        <mxCell id="B20BPbvxoQNRa6osuwxp-364" value="0.3" style="edgeLabel;html=1;align=center;verticalAlign=middle;resizable=0;points=[];" vertex="1" connectable="0" parent="B20BPbvxoQNRa6osuwxp-323">
          <mxGeometry x="-0.6537" y="1" relative="1" as="geometry">
            <mxPoint as="offset" />
          </mxGeometry>
        </mxCell>
        <mxCell id="B20BPbvxoQNRa6osuwxp-237" value="Bantu" style="ellipse;whiteSpace=wrap;html=1;aspect=fixed;" vertex="1" parent="1">
          <mxGeometry x="-1620" y="1930" width="80" height="80" as="geometry" />
        </mxCell>
        <mxCell id="B20BPbvxoQNRa6osuwxp-248" style="rounded=0;orthogonalLoop=1;jettySize=auto;html=1;exitX=0;exitY=1;exitDx=0;exitDy=0;entryX=0.963;entryY=0.25;entryDx=0;entryDy=0;entryPerimeter=0;" edge="1" parent="1" source="B20BPbvxoQNRa6osuwxp-232" target="B20BPbvxoQNRa6osuwxp-237">
          <mxGeometry relative="1" as="geometry" />
        </mxCell>
        <mxCell id="B20BPbvxoQNRa6osuwxp-342" value="0.1" style="edgeLabel;html=1;align=center;verticalAlign=middle;resizable=0;points=[];" vertex="1" connectable="0" parent="B20BPbvxoQNRa6osuwxp-248">
          <mxGeometry x="-0.7007" y="3" relative="1" as="geometry">
            <mxPoint as="offset" />
          </mxGeometry>
        </mxCell>
        <mxCell id="B20BPbvxoQNRa6osuwxp-251" value="" style="curved=1;endArrow=classic;html=1;rounded=0;exitX=1;exitY=1;exitDx=0;exitDy=0;entryX=0;entryY=1;entryDx=0;entryDy=0;" edge="1" parent="1" source="B20BPbvxoQNRa6osuwxp-237" target="B20BPbvxoQNRa6osuwxp-237">
          <mxGeometry width="50" height="50" relative="1" as="geometry">
            <mxPoint x="-1310" y="1809.5" as="sourcePoint" />
            <mxPoint x="-1260" y="1759.5" as="targetPoint" />
            <Array as="points">
              <mxPoint x="-1520" y="2069.5" />
              <mxPoint x="-1640" y="2069.5" />
            </Array>
          </mxGeometry>
        </mxCell>
        <mxCell id="B20BPbvxoQNRa6osuwxp-366" value="0.2" style="edgeLabel;html=1;align=center;verticalAlign=middle;resizable=0;points=[];" vertex="1" connectable="0" parent="B20BPbvxoQNRa6osuwxp-251">
          <mxGeometry x="-0.5899" y="-12" relative="1" as="geometry">
            <mxPoint as="offset" />
          </mxGeometry>
        </mxCell>
        <mxCell id="B20BPbvxoQNRa6osuwxp-312" value="" style="curved=1;endArrow=classic;html=1;rounded=0;exitX=1;exitY=1;exitDx=0;exitDy=0;entryX=0;entryY=1;entryDx=0;entryDy=0;" edge="1" parent="1">
          <mxGeometry width="50" height="50" relative="1" as="geometry">
            <mxPoint x="-1272" y="2000" as="sourcePoint" />
            <mxPoint x="-1328" y="2000" as="targetPoint" />
            <Array as="points">
              <mxPoint x="-1240" y="2071.5" />
              <mxPoint x="-1360" y="2071.5" />
            </Array>
          </mxGeometry>
        </mxCell>
        <mxCell id="B20BPbvxoQNRa6osuwxp-373" value="0.1" style="edgeLabel;html=1;align=center;verticalAlign=middle;resizable=0;points=[];" vertex="1" connectable="0" parent="B20BPbvxoQNRa6osuwxp-312">
          <mxGeometry x="0.0602" y="-3" relative="1" as="geometry">
            <mxPoint as="offset" />
          </mxGeometry>
        </mxCell>
        <mxCell id="B20BPbvxoQNRa6osuwxp-313" value="" style="curved=1;endArrow=classic;html=1;rounded=0;exitX=1;exitY=0;exitDx=0;exitDy=0;entryX=1;entryY=1;entryDx=0;entryDy=0;" edge="1" parent="1" source="B20BPbvxoQNRa6osuwxp-232" target="B20BPbvxoQNRa6osuwxp-232">
          <mxGeometry width="50" height="50" relative="1" as="geometry">
            <mxPoint x="-902" y="1541.25" as="sourcePoint" />
            <mxPoint x="-958" y="1541.25" as="targetPoint" />
            <Array as="points">
              <mxPoint x="-950" y="1450" />
              <mxPoint x="-950" y="1590" />
            </Array>
          </mxGeometry>
        </mxCell>
        <mxCell id="B20BPbvxoQNRa6osuwxp-318" value="0.1" style="edgeLabel;html=1;align=center;verticalAlign=middle;resizable=0;points=[];" vertex="1" connectable="0" parent="B20BPbvxoQNRa6osuwxp-313">
          <mxGeometry x="-0.2317" y="-4" relative="1" as="geometry">
            <mxPoint as="offset" />
          </mxGeometry>
        </mxCell>
        <mxCell id="B20BPbvxoQNRa6osuwxp-315" value="" style="curved=1;endArrow=classic;html=1;rounded=0;exitX=0.263;exitY=0.038;exitDx=0;exitDy=0;entryX=0.913;entryY=0.275;entryDx=0;entryDy=0;exitPerimeter=0;entryPerimeter=0;" edge="1" parent="1" source="B20BPbvxoQNRa6osuwxp-230" target="B20BPbvxoQNRa6osuwxp-230">
          <mxGeometry width="50" height="50" relative="1" as="geometry">
            <mxPoint x="-1250" y="1052" as="sourcePoint" />
            <mxPoint x="-1250" y="1108" as="targetPoint" />
            <Array as="points">
              <mxPoint x="-1330" y="1060" />
              <mxPoint x="-1210" y="1110" />
            </Array>
          </mxGeometry>
        </mxCell>
        <mxCell id="B20BPbvxoQNRa6osuwxp-345" value="0.1" style="edgeLabel;html=1;align=center;verticalAlign=middle;resizable=0;points=[];" vertex="1" connectable="0" parent="B20BPbvxoQNRa6osuwxp-315">
          <mxGeometry x="0.0442" y="2" relative="1" as="geometry">
            <mxPoint as="offset" />
          </mxGeometry>
        </mxCell>
        <mxCell id="B20BPbvxoQNRa6osuwxp-316" value="" style="curved=1;endArrow=classic;html=1;rounded=0;exitX=0;exitY=0;exitDx=0;exitDy=0;entryX=0.7;entryY=0.056;entryDx=0;entryDy=0;entryPerimeter=0;" edge="1" parent="1" source="B20BPbvxoQNRa6osuwxp-231" target="B20BPbvxoQNRa6osuwxp-231">
          <mxGeometry width="50" height="50" relative="1" as="geometry">
            <mxPoint x="-1611" y="1024.5" as="sourcePoint" />
            <mxPoint x="-1556" y="1123" as="targetPoint" />
            <Array as="points">
              <mxPoint x="-1610" y="1070" />
              <mxPoint x="-1550" y="1070" />
            </Array>
          </mxGeometry>
        </mxCell>
        <mxCell id="B20BPbvxoQNRa6osuwxp-352" value="0.1" style="edgeLabel;html=1;align=center;verticalAlign=middle;resizable=0;points=[];" vertex="1" connectable="0" parent="B20BPbvxoQNRa6osuwxp-316">
          <mxGeometry x="-0.0356" y="-2" relative="1" as="geometry">
            <mxPoint as="offset" />
          </mxGeometry>
        </mxCell>
        <mxCell id="B20BPbvxoQNRa6osuwxp-317" value="" style="curved=1;endArrow=classic;html=1;rounded=0;entryX=0;entryY=1;entryDx=0;entryDy=0;" edge="1" parent="1" source="B20BPbvxoQNRa6osuwxp-233" target="B20BPbvxoQNRa6osuwxp-233">
          <mxGeometry width="50" height="50" relative="1" as="geometry">
            <mxPoint x="-1940" y="1481" as="sourcePoint" />
            <mxPoint x="-1940" y="1537" as="targetPoint" />
            <Array as="points">
              <mxPoint x="-1930" y="1430" />
              <mxPoint x="-1930" y="1580" />
            </Array>
          </mxGeometry>
        </mxCell>
        <mxCell id="B20BPbvxoQNRa6osuwxp-359" value="0.1" style="edgeLabel;html=1;align=center;verticalAlign=middle;resizable=0;points=[];" vertex="1" connectable="0" parent="B20BPbvxoQNRa6osuwxp-317">
          <mxGeometry x="-0.8329" y="3" relative="1" as="geometry">
            <mxPoint as="offset" />
          </mxGeometry>
        </mxCell>
        <mxCell id="B20BPbvxoQNRa6osuwxp-321" style="rounded=0;orthogonalLoop=1;jettySize=auto;html=1;exitX=0;exitY=0;exitDx=0;exitDy=0;entryX=0.938;entryY=0.631;entryDx=0;entryDy=0;entryPerimeter=0;" edge="1" parent="1" source="B20BPbvxoQNRa6osuwxp-232" target="B20BPbvxoQNRa6osuwxp-231">
          <mxGeometry relative="1" as="geometry" />
        </mxCell>
        <mxCell id="B20BPbvxoQNRa6osuwxp-340" value="0.3" style="edgeLabel;html=1;align=center;verticalAlign=middle;resizable=0;points=[];" vertex="1" connectable="0" parent="B20BPbvxoQNRa6osuwxp-321">
          <mxGeometry x="-0.4541" y="2" relative="1" as="geometry">
            <mxPoint as="offset" />
          </mxGeometry>
        </mxCell>
        <mxCell id="B20BPbvxoQNRa6osuwxp-322" style="rounded=0;orthogonalLoop=1;jettySize=auto;html=1;exitX=1;exitY=1;exitDx=0;exitDy=0;entryX=0.05;entryY=0.313;entryDx=0;entryDy=0;entryPerimeter=0;" edge="1" parent="1" source="B20BPbvxoQNRa6osuwxp-231" target="B20BPbvxoQNRa6osuwxp-232">
          <mxGeometry relative="1" as="geometry" />
        </mxCell>
        <mxCell id="B20BPbvxoQNRa6osuwxp-350" value="0.3" style="edgeLabel;html=1;align=center;verticalAlign=middle;resizable=0;points=[];" vertex="1" connectable="0" parent="B20BPbvxoQNRa6osuwxp-322">
          <mxGeometry x="-0.8174" y="-1" relative="1" as="geometry">
            <mxPoint as="offset" />
          </mxGeometry>
        </mxCell>
        <mxCell id="B20BPbvxoQNRa6osuwxp-324" style="rounded=0;orthogonalLoop=1;jettySize=auto;html=1;exitX=1;exitY=0;exitDx=0;exitDy=0;entryX=0.313;entryY=0.963;entryDx=0;entryDy=0;entryPerimeter=0;" edge="1" parent="1" source="B20BPbvxoQNRa6osuwxp-237" target="B20BPbvxoQNRa6osuwxp-230">
          <mxGeometry relative="1" as="geometry" />
        </mxCell>
        <mxCell id="B20BPbvxoQNRa6osuwxp-363" value="0.1" style="edgeLabel;html=1;align=center;verticalAlign=middle;resizable=0;points=[];" vertex="1" connectable="0" parent="B20BPbvxoQNRa6osuwxp-324">
          <mxGeometry x="-0.8532" y="-2" relative="1" as="geometry">
            <mxPoint as="offset" />
          </mxGeometry>
        </mxCell>
        <mxCell id="B20BPbvxoQNRa6osuwxp-325" style="rounded=0;orthogonalLoop=1;jettySize=auto;html=1;entryX=0.063;entryY=0.763;entryDx=0;entryDy=0;entryPerimeter=0;" edge="1" parent="1" target="B20BPbvxoQNRa6osuwxp-232">
          <mxGeometry relative="1" as="geometry">
            <mxPoint x="-1550" y="1940" as="sourcePoint" />
          </mxGeometry>
        </mxCell>
        <mxCell id="B20BPbvxoQNRa6osuwxp-362" value="0.0" style="edgeLabel;html=1;align=center;verticalAlign=middle;resizable=0;points=[];" vertex="1" connectable="0" parent="B20BPbvxoQNRa6osuwxp-325">
          <mxGeometry x="-0.7949" y="1" relative="1" as="geometry">
            <mxPoint as="offset" />
          </mxGeometry>
        </mxCell>
        <mxCell id="B20BPbvxoQNRa6osuwxp-327" style="rounded=0;orthogonalLoop=1;jettySize=auto;html=1;exitX=0;exitY=0;exitDx=0;exitDy=0;" edge="1" parent="1" source="B20BPbvxoQNRa6osuwxp-236">
          <mxGeometry relative="1" as="geometry">
            <mxPoint x="-1570" y="1193" as="targetPoint" />
          </mxGeometry>
        </mxCell>
        <mxCell id="B20BPbvxoQNRa6osuwxp-370" value="0.1" style="edgeLabel;html=1;align=center;verticalAlign=middle;resizable=0;points=[];" vertex="1" connectable="0" parent="B20BPbvxoQNRa6osuwxp-327">
          <mxGeometry x="-0.8311" y="2" relative="1" as="geometry">
            <mxPoint x="-2" as="offset" />
          </mxGeometry>
        </mxCell>
        <mxCell id="B20BPbvxoQNRa6osuwxp-330" style="rounded=0;orthogonalLoop=1;jettySize=auto;html=1;exitX=1;exitY=0;exitDx=0;exitDy=0;entryX=0.025;entryY=0.613;entryDx=0;entryDy=0;entryPerimeter=0;" edge="1" parent="1" source="B20BPbvxoQNRa6osuwxp-233" target="B20BPbvxoQNRa6osuwxp-230">
          <mxGeometry relative="1" as="geometry" />
        </mxCell>
        <mxCell id="B20BPbvxoQNRa6osuwxp-357" value="0.2" style="edgeLabel;html=1;align=center;verticalAlign=middle;resizable=0;points=[];" vertex="1" connectable="0" parent="B20BPbvxoQNRa6osuwxp-330">
          <mxGeometry x="-0.888" y="2" relative="1" as="geometry">
            <mxPoint as="offset" />
          </mxGeometry>
        </mxCell>
        <mxCell id="B20BPbvxoQNRa6osuwxp-331" style="rounded=0;orthogonalLoop=1;jettySize=auto;html=1;exitX=1;exitY=1;exitDx=0;exitDy=0;entryX=0.038;entryY=0.263;entryDx=0;entryDy=0;entryPerimeter=0;" edge="1" parent="1" source="B20BPbvxoQNRa6osuwxp-233" target="B20BPbvxoQNRa6osuwxp-236">
          <mxGeometry relative="1" as="geometry" />
        </mxCell>
        <mxCell id="B20BPbvxoQNRa6osuwxp-361" value="0.1" style="edgeLabel;html=1;align=center;verticalAlign=middle;resizable=0;points=[];" vertex="1" connectable="0" parent="B20BPbvxoQNRa6osuwxp-331">
          <mxGeometry x="-0.6349" y="1" relative="1" as="geometry">
            <mxPoint x="2" as="offset" />
          </mxGeometry>
        </mxCell>
        <mxCell id="B20BPbvxoQNRa6osuwxp-332" style="rounded=0;orthogonalLoop=1;jettySize=auto;html=1;exitX=0.075;exitY=0.8;exitDx=0;exitDy=0;entryX=0.927;entryY=0.245;entryDx=0;entryDy=0;entryPerimeter=0;exitPerimeter=0;" edge="1" parent="1" source="B20BPbvxoQNRa6osuwxp-230" target="B20BPbvxoQNRa6osuwxp-233">
          <mxGeometry relative="1" as="geometry" />
        </mxCell>
        <mxCell id="B20BPbvxoQNRa6osuwxp-347" value="0.1" style="edgeLabel;html=1;align=center;verticalAlign=middle;resizable=0;points=[];" vertex="1" connectable="0" parent="B20BPbvxoQNRa6osuwxp-332">
          <mxGeometry x="-0.7827" y="-1" relative="1" as="geometry">
            <mxPoint as="offset" />
          </mxGeometry>
        </mxCell>
      </root>
    </mxGraphModel>
  </diagram>
</mxfile>
